G04 #@! TF.FileFunction,Legend,Top*
%FSLAX45Y45*%
G04 Gerber Fmt 4.5, Leading zero omitted, Abs format (unit mm)*
G04 Created by KiCad (PCBNEW 4.0.6+dfsg1-1) date Thu Nov  2 20:52:10 2017*
%MOMM*%
%LPD*%
G01*
G04 APERTURE LIST*
%ADD10C,0.150000*%
%ADD11C,0.250000*%
%ADD12C,0.381000*%
G04 APERTURE END LIST*
D10*
D11*
X17910952Y-13745238D02*
X17877619Y-13697619D01*
X17853810Y-13745238D02*
X17853810Y-13645238D01*
X17891905Y-13645238D01*
X17901429Y-13650000D01*
X17906191Y-13654762D01*
X17910952Y-13664286D01*
X17910952Y-13678571D01*
X17906191Y-13688095D01*
X17901429Y-13692857D01*
X17891905Y-13697619D01*
X17853810Y-13697619D01*
X15510952Y-14270238D02*
X15477619Y-14222619D01*
X15453809Y-14270238D02*
X15453809Y-14170238D01*
X15491905Y-14170238D01*
X15501429Y-14175000D01*
X15506190Y-14179762D01*
X15510952Y-14189286D01*
X15510952Y-14203571D01*
X15506190Y-14213095D01*
X15501429Y-14217857D01*
X15491905Y-14222619D01*
X15453809Y-14222619D01*
X12910952Y-13690238D02*
X12877619Y-13642619D01*
X12853809Y-13690238D02*
X12853809Y-13590238D01*
X12891905Y-13590238D01*
X12901429Y-13595000D01*
X12906190Y-13599762D01*
X12910952Y-13609286D01*
X12910952Y-13623571D01*
X12906190Y-13633095D01*
X12901429Y-13637857D01*
X12891905Y-13642619D01*
X12853809Y-13642619D01*
X10450952Y-14235238D02*
X10417619Y-14187619D01*
X10393810Y-14235238D02*
X10393810Y-14135238D01*
X10431905Y-14135238D01*
X10441429Y-14140000D01*
X10446191Y-14144762D01*
X10450952Y-14154286D01*
X10450952Y-14168571D01*
X10446191Y-14178095D01*
X10441429Y-14182857D01*
X10431905Y-14187619D01*
X10393810Y-14187619D01*
X15414286Y-13555238D02*
X15471429Y-13555238D01*
X15442857Y-13655238D02*
X15442857Y-13555238D01*
X15504762Y-13655238D02*
X15504762Y-13555238D01*
X15547619Y-13655238D02*
X15547619Y-13602857D01*
X15542857Y-13593333D01*
X15533333Y-13588571D01*
X15519048Y-13588571D01*
X15509524Y-13593333D01*
X15504762Y-13598095D01*
X15595238Y-13655238D02*
X15595238Y-13588571D01*
X15595238Y-13607619D02*
X15600000Y-13598095D01*
X15604762Y-13593333D01*
X15614286Y-13588571D01*
X15623810Y-13588571D01*
X15700000Y-13588571D02*
X15700000Y-13655238D01*
X15657143Y-13588571D02*
X15657143Y-13640952D01*
X15661905Y-13650476D01*
X15671429Y-13655238D01*
X15685714Y-13655238D01*
X15695238Y-13650476D01*
X15700000Y-13645714D01*
X15823810Y-13655238D02*
X15823810Y-13555238D01*
X15861905Y-13555238D01*
X15871429Y-13560000D01*
X15876191Y-13564762D01*
X15880952Y-13574286D01*
X15880952Y-13588571D01*
X15876191Y-13598095D01*
X15871429Y-13602857D01*
X15861905Y-13607619D01*
X15823810Y-13607619D01*
X15938095Y-13655238D02*
X15928571Y-13650476D01*
X15923810Y-13645714D01*
X15919048Y-13636190D01*
X15919048Y-13607619D01*
X15923810Y-13598095D01*
X15928571Y-13593333D01*
X15938095Y-13588571D01*
X15952381Y-13588571D01*
X15961905Y-13593333D01*
X15966667Y-13598095D01*
X15971429Y-13607619D01*
X15971429Y-13636190D01*
X15966667Y-13645714D01*
X15961905Y-13650476D01*
X15952381Y-13655238D01*
X15938095Y-13655238D01*
X16000000Y-13588571D02*
X16038095Y-13588571D01*
X16014286Y-13555238D02*
X16014286Y-13640952D01*
X16019048Y-13650476D01*
X16028571Y-13655238D01*
X16038095Y-13655238D01*
X16071429Y-13645714D02*
X16076191Y-13650476D01*
X16071429Y-13655238D01*
X16066667Y-13650476D01*
X16071429Y-13645714D01*
X16071429Y-13655238D01*
X16437619Y-14795238D02*
X16470952Y-14895238D01*
X16504286Y-14795238D01*
X16590000Y-14895238D02*
X16532857Y-14895238D01*
X16561429Y-14895238D02*
X16561429Y-14795238D01*
X16551905Y-14809524D01*
X16542381Y-14819048D01*
X16532857Y-14823809D01*
X16632857Y-14885714D02*
X16637619Y-14890476D01*
X16632857Y-14895238D01*
X16628095Y-14890476D01*
X16632857Y-14885714D01*
X16632857Y-14895238D01*
X16694762Y-14838095D02*
X16685238Y-14833333D01*
X16680476Y-14828571D01*
X16675714Y-14819048D01*
X16675714Y-14814286D01*
X16680476Y-14804762D01*
X16685238Y-14800000D01*
X16694762Y-14795238D01*
X16713810Y-14795238D01*
X16723333Y-14800000D01*
X16728095Y-14804762D01*
X16732857Y-14814286D01*
X16732857Y-14819048D01*
X16728095Y-14828571D01*
X16723333Y-14833333D01*
X16713810Y-14838095D01*
X16694762Y-14838095D01*
X16685238Y-14842857D01*
X16680476Y-14847619D01*
X16675714Y-14857143D01*
X16675714Y-14876190D01*
X16680476Y-14885714D01*
X16685238Y-14890476D01*
X16694762Y-14895238D01*
X16713810Y-14895238D01*
X16723333Y-14890476D01*
X16728095Y-14885714D01*
X16732857Y-14876190D01*
X16732857Y-14857143D01*
X16728095Y-14847619D01*
X16723333Y-14842857D01*
X16713810Y-14838095D01*
X15586667Y-14316667D02*
X15634286Y-14316667D01*
X15577143Y-14345238D02*
X15610476Y-14245238D01*
X15643809Y-14345238D01*
X15720000Y-14278571D02*
X15720000Y-14345238D01*
X15677143Y-14278571D02*
X15677143Y-14330952D01*
X15681905Y-14340476D01*
X15691428Y-14345238D01*
X15705714Y-14345238D01*
X15715238Y-14340476D01*
X15720000Y-14335714D01*
X15810476Y-14345238D02*
X15810476Y-14245238D01*
X15810476Y-14340476D02*
X15800952Y-14345238D01*
X15781905Y-14345238D01*
X15772381Y-14340476D01*
X15767619Y-14335714D01*
X15762857Y-14326190D01*
X15762857Y-14297619D01*
X15767619Y-14288095D01*
X15772381Y-14283333D01*
X15781905Y-14278571D01*
X15800952Y-14278571D01*
X15810476Y-14283333D01*
X15858095Y-14345238D02*
X15858095Y-14278571D01*
X15858095Y-14245238D02*
X15853333Y-14250000D01*
X15858095Y-14254762D01*
X15862857Y-14250000D01*
X15858095Y-14245238D01*
X15858095Y-14254762D01*
X15920000Y-14345238D02*
X15910476Y-14340476D01*
X15905714Y-14335714D01*
X15900952Y-14326190D01*
X15900952Y-14297619D01*
X15905714Y-14288095D01*
X15910476Y-14283333D01*
X15920000Y-14278571D01*
X15934286Y-14278571D01*
X15943809Y-14283333D01*
X15948571Y-14288095D01*
X15953333Y-14297619D01*
X15953333Y-14326190D01*
X15948571Y-14335714D01*
X15943809Y-14340476D01*
X15934286Y-14345238D01*
X15920000Y-14345238D01*
X16072381Y-14345238D02*
X16072381Y-14245238D01*
X16120000Y-14278571D02*
X16120000Y-14345238D01*
X16120000Y-14288095D02*
X16124762Y-14283333D01*
X16134286Y-14278571D01*
X16148571Y-14278571D01*
X16158095Y-14283333D01*
X16162857Y-14292857D01*
X16162857Y-14345238D01*
X16210476Y-14278571D02*
X16210476Y-14364286D01*
X16205714Y-14373809D01*
X16196190Y-14378571D01*
X16191428Y-14378571D01*
X16210476Y-14245238D02*
X16205714Y-14250000D01*
X16210476Y-14254762D01*
X16215238Y-14250000D01*
X16210476Y-14245238D01*
X16210476Y-14254762D01*
X16296190Y-14340476D02*
X16286667Y-14345238D01*
X16267619Y-14345238D01*
X16258095Y-14340476D01*
X16253333Y-14330952D01*
X16253333Y-14292857D01*
X16258095Y-14283333D01*
X16267619Y-14278571D01*
X16286667Y-14278571D01*
X16296190Y-14283333D01*
X16300952Y-14292857D01*
X16300952Y-14302381D01*
X16253333Y-14311905D01*
X16386667Y-14340476D02*
X16377143Y-14345238D01*
X16358095Y-14345238D01*
X16348571Y-14340476D01*
X16343809Y-14335714D01*
X16339047Y-14326190D01*
X16339047Y-14297619D01*
X16343809Y-14288095D01*
X16348571Y-14283333D01*
X16358095Y-14278571D01*
X16377143Y-14278571D01*
X16386667Y-14283333D01*
X16415238Y-14278571D02*
X16453333Y-14278571D01*
X16429524Y-14245238D02*
X16429524Y-14330952D01*
X16434286Y-14340476D01*
X16443809Y-14345238D01*
X16453333Y-14345238D01*
X16500952Y-14345238D02*
X16491428Y-14340476D01*
X16486667Y-14335714D01*
X16481905Y-14326190D01*
X16481905Y-14297619D01*
X16486667Y-14288095D01*
X16491428Y-14283333D01*
X16500952Y-14278571D01*
X16515238Y-14278571D01*
X16524762Y-14283333D01*
X16529524Y-14288095D01*
X16534286Y-14297619D01*
X16534286Y-14326190D01*
X16529524Y-14335714D01*
X16524762Y-14340476D01*
X16515238Y-14345238D01*
X16500952Y-14345238D01*
X16577143Y-14345238D02*
X16577143Y-14278571D01*
X16577143Y-14297619D02*
X16581905Y-14288095D01*
X16586667Y-14283333D01*
X16596190Y-14278571D01*
X16605714Y-14278571D01*
X16715238Y-14335714D02*
X16720000Y-14340476D01*
X16715238Y-14345238D01*
X16710476Y-14340476D01*
X16715238Y-14335714D01*
X16715238Y-14345238D01*
X16762857Y-14278571D02*
X16762857Y-14345238D01*
X16762857Y-14288095D02*
X16767619Y-14283333D01*
X16777143Y-14278571D01*
X16791429Y-14278571D01*
X16800952Y-14283333D01*
X16805714Y-14292857D01*
X16805714Y-14345238D01*
X16891429Y-14340476D02*
X16881905Y-14345238D01*
X16862857Y-14345238D01*
X16853333Y-14340476D01*
X16848571Y-14330952D01*
X16848571Y-14292857D01*
X16853333Y-14283333D01*
X16862857Y-14278571D01*
X16881905Y-14278571D01*
X16891429Y-14283333D01*
X16896191Y-14292857D01*
X16896191Y-14302381D01*
X16848571Y-14311905D01*
X16924762Y-14278571D02*
X16962857Y-14278571D01*
X16939048Y-14245238D02*
X16939048Y-14330952D01*
X16943810Y-14340476D01*
X16953333Y-14345238D01*
X16962857Y-14345238D01*
X16517619Y-13677738D02*
X16584286Y-13677738D01*
X16517619Y-13777738D01*
X16584286Y-13777738D01*
X16660476Y-13772976D02*
X16650952Y-13777738D01*
X16631905Y-13777738D01*
X16622381Y-13772976D01*
X16617619Y-13763452D01*
X16617619Y-13725357D01*
X16622381Y-13715833D01*
X16631905Y-13711071D01*
X16650952Y-13711071D01*
X16660476Y-13715833D01*
X16665238Y-13725357D01*
X16665238Y-13734881D01*
X16617619Y-13744405D01*
X16708095Y-13777738D02*
X16708095Y-13711071D01*
X16708095Y-13730119D02*
X16712857Y-13720595D01*
X16717619Y-13715833D01*
X16727143Y-13711071D01*
X16736667Y-13711071D01*
X16784286Y-13777738D02*
X16774762Y-13772976D01*
X16770000Y-13768214D01*
X16765238Y-13758690D01*
X16765238Y-13730119D01*
X16770000Y-13720595D01*
X16774762Y-13715833D01*
X16784286Y-13711071D01*
X16798572Y-13711071D01*
X16808095Y-13715833D01*
X16812857Y-13720595D01*
X16817619Y-13730119D01*
X16817619Y-13758690D01*
X16812857Y-13768214D01*
X16808095Y-13772976D01*
X16798572Y-13777738D01*
X16784286Y-13777738D01*
X16617619Y-13952738D02*
X16617619Y-13852738D01*
X16684286Y-13852738D02*
X16703333Y-13852738D01*
X16712857Y-13857500D01*
X16722381Y-13867024D01*
X16727143Y-13886071D01*
X16727143Y-13919405D01*
X16722381Y-13938452D01*
X16712857Y-13947976D01*
X16703333Y-13952738D01*
X16684286Y-13952738D01*
X16674762Y-13947976D01*
X16665238Y-13938452D01*
X16660476Y-13919405D01*
X16660476Y-13886071D01*
X16665238Y-13867024D01*
X16674762Y-13857500D01*
X16684286Y-13852738D01*
X18709762Y-14025238D02*
X18709762Y-13925238D01*
X18733571Y-13925238D01*
X18747857Y-13930000D01*
X18757381Y-13939524D01*
X18762143Y-13949048D01*
X18766905Y-13968095D01*
X18766905Y-13982381D01*
X18762143Y-14001429D01*
X18757381Y-14010952D01*
X18747857Y-14020476D01*
X18733571Y-14025238D01*
X18709762Y-14025238D01*
X18809762Y-14025238D02*
X18809762Y-13958571D01*
X18809762Y-13925238D02*
X18805000Y-13930000D01*
X18809762Y-13934762D01*
X18814524Y-13930000D01*
X18809762Y-13925238D01*
X18809762Y-13934762D01*
X18857381Y-14025238D02*
X18857381Y-13958571D01*
X18857381Y-13977619D02*
X18862143Y-13968095D01*
X18866905Y-13963333D01*
X18876429Y-13958571D01*
X18885952Y-13958571D01*
X18957381Y-14020476D02*
X18947857Y-14025238D01*
X18928810Y-14025238D01*
X18919286Y-14020476D01*
X18914524Y-14010952D01*
X18914524Y-13972857D01*
X18919286Y-13963333D01*
X18928810Y-13958571D01*
X18947857Y-13958571D01*
X18957381Y-13963333D01*
X18962143Y-13972857D01*
X18962143Y-13982381D01*
X18914524Y-13991905D01*
X19047857Y-14020476D02*
X19038333Y-14025238D01*
X19019286Y-14025238D01*
X19009762Y-14020476D01*
X19005000Y-14015714D01*
X19000238Y-14006190D01*
X19000238Y-13977619D01*
X19005000Y-13968095D01*
X19009762Y-13963333D01*
X19019286Y-13958571D01*
X19038333Y-13958571D01*
X19047857Y-13963333D01*
X19076429Y-13958571D02*
X19114524Y-13958571D01*
X19090714Y-13925238D02*
X19090714Y-14010952D01*
X19095476Y-14020476D01*
X19105000Y-14025238D01*
X19114524Y-14025238D01*
D10*
X19975000Y-15340000D02*
X15225000Y-15340000D01*
X15450000Y-13515000D02*
G75*
G03X15225000Y-13740000I0J-225000D01*
G01*
X19975000Y-13715000D02*
G75*
G03X19825000Y-13515000I-175000J25000D01*
G01*
X15225000Y-15340000D02*
X15225000Y-13740000D01*
X15450000Y-13515000D02*
X19825000Y-13515000D01*
X19975000Y-15340000D02*
X19975000Y-13715000D01*
D11*
X10454286Y-13525238D02*
X10511429Y-13525238D01*
X10482857Y-13625238D02*
X10482857Y-13525238D01*
X10544762Y-13625238D02*
X10544762Y-13525238D01*
X10587619Y-13625238D02*
X10587619Y-13572857D01*
X10582857Y-13563333D01*
X10573333Y-13558571D01*
X10559048Y-13558571D01*
X10549524Y-13563333D01*
X10544762Y-13568095D01*
X10635238Y-13625238D02*
X10635238Y-13558571D01*
X10635238Y-13577619D02*
X10640000Y-13568095D01*
X10644762Y-13563333D01*
X10654286Y-13558571D01*
X10663810Y-13558571D01*
X10740000Y-13558571D02*
X10740000Y-13625238D01*
X10697143Y-13558571D02*
X10697143Y-13610952D01*
X10701905Y-13620476D01*
X10711429Y-13625238D01*
X10725714Y-13625238D01*
X10735238Y-13620476D01*
X10740000Y-13615714D01*
X10863810Y-13625238D02*
X10863810Y-13525238D01*
X10901905Y-13525238D01*
X10911429Y-13530000D01*
X10916191Y-13534762D01*
X10920953Y-13544286D01*
X10920953Y-13558571D01*
X10916191Y-13568095D01*
X10911429Y-13572857D01*
X10901905Y-13577619D01*
X10863810Y-13577619D01*
X10978095Y-13625238D02*
X10968572Y-13620476D01*
X10963810Y-13615714D01*
X10959048Y-13606190D01*
X10959048Y-13577619D01*
X10963810Y-13568095D01*
X10968572Y-13563333D01*
X10978095Y-13558571D01*
X10992381Y-13558571D01*
X11001905Y-13563333D01*
X11006667Y-13568095D01*
X11011429Y-13577619D01*
X11011429Y-13606190D01*
X11006667Y-13615714D01*
X11001905Y-13620476D01*
X10992381Y-13625238D01*
X10978095Y-13625238D01*
X11040000Y-13558571D02*
X11078095Y-13558571D01*
X11054286Y-13525238D02*
X11054286Y-13610952D01*
X11059048Y-13620476D01*
X11068572Y-13625238D01*
X11078095Y-13625238D01*
X11111429Y-13615714D02*
X11116191Y-13620476D01*
X11111429Y-13625238D01*
X11106667Y-13620476D01*
X11111429Y-13615714D01*
X11111429Y-13625238D01*
X11407619Y-14705238D02*
X11440952Y-14805238D01*
X11474286Y-14705238D01*
X11560000Y-14805238D02*
X11502857Y-14805238D01*
X11531429Y-14805238D02*
X11531429Y-14705238D01*
X11521905Y-14719524D01*
X11512381Y-14729048D01*
X11502857Y-14733809D01*
X11602857Y-14795714D02*
X11607619Y-14800476D01*
X11602857Y-14805238D01*
X11598095Y-14800476D01*
X11602857Y-14795714D01*
X11602857Y-14805238D01*
X11664762Y-14748095D02*
X11655238Y-14743333D01*
X11650476Y-14738571D01*
X11645714Y-14729048D01*
X11645714Y-14724286D01*
X11650476Y-14714762D01*
X11655238Y-14710000D01*
X11664762Y-14705238D01*
X11683810Y-14705238D01*
X11693333Y-14710000D01*
X11698095Y-14714762D01*
X11702857Y-14724286D01*
X11702857Y-14729048D01*
X11698095Y-14738571D01*
X11693333Y-14743333D01*
X11683810Y-14748095D01*
X11664762Y-14748095D01*
X11655238Y-14752857D01*
X11650476Y-14757619D01*
X11645714Y-14767143D01*
X11645714Y-14786190D01*
X11650476Y-14795714D01*
X11655238Y-14800476D01*
X11664762Y-14805238D01*
X11683810Y-14805238D01*
X11693333Y-14800476D01*
X11698095Y-14795714D01*
X11702857Y-14786190D01*
X11702857Y-14767143D01*
X11698095Y-14757619D01*
X11693333Y-14752857D01*
X11683810Y-14748095D01*
X10586667Y-14286667D02*
X10634286Y-14286667D01*
X10577143Y-14315238D02*
X10610476Y-14215238D01*
X10643810Y-14315238D01*
X10720000Y-14248571D02*
X10720000Y-14315238D01*
X10677143Y-14248571D02*
X10677143Y-14300952D01*
X10681905Y-14310476D01*
X10691429Y-14315238D01*
X10705714Y-14315238D01*
X10715238Y-14310476D01*
X10720000Y-14305714D01*
X10810476Y-14315238D02*
X10810476Y-14215238D01*
X10810476Y-14310476D02*
X10800952Y-14315238D01*
X10781905Y-14315238D01*
X10772381Y-14310476D01*
X10767619Y-14305714D01*
X10762857Y-14296190D01*
X10762857Y-14267619D01*
X10767619Y-14258095D01*
X10772381Y-14253333D01*
X10781905Y-14248571D01*
X10800952Y-14248571D01*
X10810476Y-14253333D01*
X10858095Y-14315238D02*
X10858095Y-14248571D01*
X10858095Y-14215238D02*
X10853333Y-14220000D01*
X10858095Y-14224762D01*
X10862857Y-14220000D01*
X10858095Y-14215238D01*
X10858095Y-14224762D01*
X10920000Y-14315238D02*
X10910476Y-14310476D01*
X10905714Y-14305714D01*
X10900952Y-14296190D01*
X10900952Y-14267619D01*
X10905714Y-14258095D01*
X10910476Y-14253333D01*
X10920000Y-14248571D01*
X10934286Y-14248571D01*
X10943810Y-14253333D01*
X10948571Y-14258095D01*
X10953333Y-14267619D01*
X10953333Y-14296190D01*
X10948571Y-14305714D01*
X10943810Y-14310476D01*
X10934286Y-14315238D01*
X10920000Y-14315238D01*
X11072381Y-14315238D02*
X11072381Y-14215238D01*
X11120000Y-14248571D02*
X11120000Y-14315238D01*
X11120000Y-14258095D02*
X11124762Y-14253333D01*
X11134286Y-14248571D01*
X11148571Y-14248571D01*
X11158095Y-14253333D01*
X11162857Y-14262857D01*
X11162857Y-14315238D01*
X11210476Y-14248571D02*
X11210476Y-14334286D01*
X11205714Y-14343809D01*
X11196190Y-14348571D01*
X11191428Y-14348571D01*
X11210476Y-14215238D02*
X11205714Y-14220000D01*
X11210476Y-14224762D01*
X11215238Y-14220000D01*
X11210476Y-14215238D01*
X11210476Y-14224762D01*
X11296190Y-14310476D02*
X11286667Y-14315238D01*
X11267619Y-14315238D01*
X11258095Y-14310476D01*
X11253333Y-14300952D01*
X11253333Y-14262857D01*
X11258095Y-14253333D01*
X11267619Y-14248571D01*
X11286667Y-14248571D01*
X11296190Y-14253333D01*
X11300952Y-14262857D01*
X11300952Y-14272381D01*
X11253333Y-14281905D01*
X11386667Y-14310476D02*
X11377143Y-14315238D01*
X11358095Y-14315238D01*
X11348571Y-14310476D01*
X11343809Y-14305714D01*
X11339047Y-14296190D01*
X11339047Y-14267619D01*
X11343809Y-14258095D01*
X11348571Y-14253333D01*
X11358095Y-14248571D01*
X11377143Y-14248571D01*
X11386667Y-14253333D01*
X11415238Y-14248571D02*
X11453333Y-14248571D01*
X11429524Y-14215238D02*
X11429524Y-14300952D01*
X11434286Y-14310476D01*
X11443809Y-14315238D01*
X11453333Y-14315238D01*
X11500952Y-14315238D02*
X11491428Y-14310476D01*
X11486667Y-14305714D01*
X11481905Y-14296190D01*
X11481905Y-14267619D01*
X11486667Y-14258095D01*
X11491428Y-14253333D01*
X11500952Y-14248571D01*
X11515238Y-14248571D01*
X11524762Y-14253333D01*
X11529524Y-14258095D01*
X11534286Y-14267619D01*
X11534286Y-14296190D01*
X11529524Y-14305714D01*
X11524762Y-14310476D01*
X11515238Y-14315238D01*
X11500952Y-14315238D01*
X11577143Y-14315238D02*
X11577143Y-14248571D01*
X11577143Y-14267619D02*
X11581905Y-14258095D01*
X11586667Y-14253333D01*
X11596190Y-14248571D01*
X11605714Y-14248571D01*
X11715238Y-14305714D02*
X11720000Y-14310476D01*
X11715238Y-14315238D01*
X11710476Y-14310476D01*
X11715238Y-14305714D01*
X11715238Y-14315238D01*
X11762857Y-14248571D02*
X11762857Y-14315238D01*
X11762857Y-14258095D02*
X11767619Y-14253333D01*
X11777143Y-14248571D01*
X11791429Y-14248571D01*
X11800952Y-14253333D01*
X11805714Y-14262857D01*
X11805714Y-14315238D01*
X11891429Y-14310476D02*
X11881905Y-14315238D01*
X11862857Y-14315238D01*
X11853333Y-14310476D01*
X11848571Y-14300952D01*
X11848571Y-14262857D01*
X11853333Y-14253333D01*
X11862857Y-14248571D01*
X11881905Y-14248571D01*
X11891429Y-14253333D01*
X11896190Y-14262857D01*
X11896190Y-14272381D01*
X11848571Y-14281905D01*
X11924762Y-14248571D02*
X11962857Y-14248571D01*
X11939048Y-14215238D02*
X11939048Y-14300952D01*
X11943809Y-14310476D01*
X11953333Y-14315238D01*
X11962857Y-14315238D01*
X13489762Y-14015238D02*
X13489762Y-13915238D01*
X13513571Y-13915238D01*
X13527857Y-13920000D01*
X13537381Y-13929524D01*
X13542143Y-13939048D01*
X13546905Y-13958095D01*
X13546905Y-13972381D01*
X13542143Y-13991429D01*
X13537381Y-14000952D01*
X13527857Y-14010476D01*
X13513571Y-14015238D01*
X13489762Y-14015238D01*
X13589762Y-14015238D02*
X13589762Y-13948571D01*
X13589762Y-13915238D02*
X13585000Y-13920000D01*
X13589762Y-13924762D01*
X13594524Y-13920000D01*
X13589762Y-13915238D01*
X13589762Y-13924762D01*
X13637381Y-14015238D02*
X13637381Y-13948571D01*
X13637381Y-13967619D02*
X13642143Y-13958095D01*
X13646905Y-13953333D01*
X13656428Y-13948571D01*
X13665952Y-13948571D01*
X13737381Y-14010476D02*
X13727857Y-14015238D01*
X13708809Y-14015238D01*
X13699286Y-14010476D01*
X13694524Y-14000952D01*
X13694524Y-13962857D01*
X13699286Y-13953333D01*
X13708809Y-13948571D01*
X13727857Y-13948571D01*
X13737381Y-13953333D01*
X13742143Y-13962857D01*
X13742143Y-13972381D01*
X13694524Y-13981905D01*
X13827857Y-14010476D02*
X13818333Y-14015238D01*
X13799286Y-14015238D01*
X13789762Y-14010476D01*
X13785000Y-14005714D01*
X13780238Y-13996190D01*
X13780238Y-13967619D01*
X13785000Y-13958095D01*
X13789762Y-13953333D01*
X13799286Y-13948571D01*
X13818333Y-13948571D01*
X13827857Y-13953333D01*
X13856429Y-13948571D02*
X13894524Y-13948571D01*
X13870714Y-13915238D02*
X13870714Y-14000952D01*
X13875476Y-14010476D01*
X13885000Y-14015238D01*
X13894524Y-14015238D01*
X11487619Y-13677738D02*
X11554286Y-13677738D01*
X11487619Y-13777738D01*
X11554286Y-13777738D01*
X11630476Y-13772976D02*
X11620952Y-13777738D01*
X11601905Y-13777738D01*
X11592381Y-13772976D01*
X11587619Y-13763452D01*
X11587619Y-13725357D01*
X11592381Y-13715833D01*
X11601905Y-13711071D01*
X11620952Y-13711071D01*
X11630476Y-13715833D01*
X11635238Y-13725357D01*
X11635238Y-13734881D01*
X11587619Y-13744405D01*
X11678095Y-13777738D02*
X11678095Y-13711071D01*
X11678095Y-13730119D02*
X11682857Y-13720595D01*
X11687619Y-13715833D01*
X11697143Y-13711071D01*
X11706667Y-13711071D01*
X11754286Y-13777738D02*
X11744762Y-13772976D01*
X11740000Y-13768214D01*
X11735238Y-13758690D01*
X11735238Y-13730119D01*
X11740000Y-13720595D01*
X11744762Y-13715833D01*
X11754286Y-13711071D01*
X11768571Y-13711071D01*
X11778095Y-13715833D01*
X11782857Y-13720595D01*
X11787619Y-13730119D01*
X11787619Y-13758690D01*
X11782857Y-13768214D01*
X11778095Y-13772976D01*
X11768571Y-13777738D01*
X11754286Y-13777738D01*
X11587619Y-13952738D02*
X11587619Y-13852738D01*
X11654286Y-13852738D02*
X11673333Y-13852738D01*
X11682857Y-13857500D01*
X11692381Y-13867024D01*
X11697143Y-13886071D01*
X11697143Y-13919405D01*
X11692381Y-13938452D01*
X11682857Y-13947976D01*
X11673333Y-13952738D01*
X11654286Y-13952738D01*
X11644762Y-13947976D01*
X11635238Y-13938452D01*
X11630476Y-13919405D01*
X11630476Y-13886071D01*
X11635238Y-13867024D01*
X11644762Y-13857500D01*
X11654286Y-13852738D01*
D10*
X14975000Y-15315000D02*
X14975000Y-13690000D01*
X10450000Y-13490000D02*
X14825000Y-13490000D01*
X10225000Y-15315000D02*
X10225000Y-13715000D01*
X14975000Y-13690000D02*
G75*
G03X14825000Y-13490000I-175000J25000D01*
G01*
X10450000Y-13490000D02*
G75*
G03X10225000Y-13715000I0J-225000D01*
G01*
X14975000Y-15315000D02*
X10225000Y-15315000D01*
X17885000Y-13290000D02*
X17885000Y-12940000D01*
X17885000Y-12940000D02*
X18835000Y-12940000D01*
X18835000Y-12940000D02*
X18835000Y-13290000D01*
X18860000Y-16190000D02*
X17860000Y-16190000D01*
X19135000Y-15740000D02*
X18860000Y-16190000D01*
X17810000Y-15740000D02*
X17585000Y-15740000D01*
X19135000Y-15740000D02*
X18910000Y-15740000D01*
X17810000Y-15740000D02*
X17585000Y-15740000D01*
X17585000Y-15740000D02*
X17860000Y-16190000D01*
X17810000Y-15340000D02*
X17810000Y-15740000D01*
X17810000Y-15740000D02*
X18910000Y-15740000D01*
X18910000Y-15740000D02*
X18910000Y-15340000D01*
X19360000Y-15340000D02*
X17360000Y-15340000D01*
X19360000Y-15240000D02*
X17360000Y-15240000D01*
X17360000Y-13290000D02*
X19360000Y-13290000D01*
X19360000Y-15240000D02*
X19360000Y-13290000D01*
X17360000Y-15240000D02*
X17360000Y-13290000D01*
X15848000Y-13813000D02*
X15340000Y-13813000D01*
X15340000Y-13813000D02*
X15340000Y-14067000D01*
X15340000Y-14067000D02*
X15848000Y-14067000D01*
X16130000Y-14095000D02*
X15975000Y-14095000D01*
X15848000Y-14067000D02*
X15848000Y-13813000D01*
X15975000Y-13785000D02*
X16130000Y-13785000D01*
X16130000Y-13785000D02*
X16130000Y-14095000D01*
D12*
X15225020Y-14440078D02*
X16174980Y-14440078D01*
X16174980Y-14690014D02*
X16174980Y-14440078D01*
X15225020Y-14690014D02*
X15225020Y-14440078D01*
X15400026Y-15840126D02*
X15400026Y-16339998D01*
X15400026Y-16339998D02*
X15999974Y-16339998D01*
X15999974Y-16339998D02*
X15999974Y-15840126D01*
X15400026Y-15340000D02*
X15400026Y-15840126D01*
X15400026Y-15840126D02*
X15999974Y-15840126D01*
X15999974Y-15840126D02*
X15999974Y-15340000D01*
X16150088Y-15340000D02*
X15249912Y-15340000D01*
X15225020Y-14639976D02*
X15225020Y-15340000D01*
X16174980Y-14639976D02*
X16174980Y-15340000D01*
X15249912Y-14714906D02*
X16150088Y-14714906D01*
D10*
X18498000Y-13613000D02*
X17990000Y-13613000D01*
X17990000Y-13613000D02*
X17990000Y-13867000D01*
X17990000Y-13867000D02*
X18498000Y-13867000D01*
X18780000Y-13895000D02*
X18625000Y-13895000D01*
X18498000Y-13867000D02*
X18498000Y-13613000D01*
X18625000Y-13585000D02*
X18780000Y-13585000D01*
X18780000Y-13585000D02*
X18780000Y-13895000D01*
X18375000Y-15340000D02*
X19735000Y-15340000D01*
X19735000Y-15340000D02*
X19735000Y-14310000D01*
X19735000Y-14310000D02*
X17015000Y-14310000D01*
X17015000Y-14310000D02*
X17015000Y-15340000D01*
X17015000Y-15340000D02*
X18375000Y-15340000D01*
X18302500Y-15340000D02*
X18302500Y-15590000D01*
X18302500Y-15590000D02*
X18902500Y-15590000D01*
X18902500Y-15590000D02*
X18902500Y-15340000D01*
X18302500Y-15340000D02*
X18302500Y-14190000D01*
X18302500Y-14190000D02*
X18902500Y-14190000D01*
X18902500Y-14190000D02*
X18902500Y-15340000D01*
X18902500Y-15340000D02*
X18302500Y-15340000D01*
X10848000Y-13788000D02*
X10340000Y-13788000D01*
X10340000Y-13788000D02*
X10340000Y-14042000D01*
X10340000Y-14042000D02*
X10848000Y-14042000D01*
X11130000Y-14070000D02*
X10975000Y-14070000D01*
X10848000Y-14042000D02*
X10848000Y-13788000D01*
X10975000Y-13760000D02*
X11130000Y-13760000D01*
X11130000Y-13760000D02*
X11130000Y-14070000D01*
D12*
X10225020Y-14415078D02*
X11174980Y-14415078D01*
X11174980Y-14665014D02*
X11174980Y-14415078D01*
X10225020Y-14665014D02*
X10225020Y-14415078D01*
X10400026Y-15815126D02*
X10400026Y-16314998D01*
X10400026Y-16314998D02*
X10999974Y-16314998D01*
X10999974Y-16314998D02*
X10999974Y-15815126D01*
X10400026Y-15315000D02*
X10400026Y-15815126D01*
X10400026Y-15815126D02*
X10999974Y-15815126D01*
X10999974Y-15815126D02*
X10999974Y-15315000D01*
X11150088Y-15315000D02*
X10249912Y-15315000D01*
X10225020Y-14614976D02*
X10225020Y-15315000D01*
X11174980Y-14614976D02*
X11174980Y-15315000D01*
X10249912Y-14689906D02*
X11150088Y-14689906D01*
D10*
X13498000Y-13588000D02*
X12990000Y-13588000D01*
X12990000Y-13588000D02*
X12990000Y-13842000D01*
X12990000Y-13842000D02*
X13498000Y-13842000D01*
X13780000Y-13870000D02*
X13625000Y-13870000D01*
X13498000Y-13842000D02*
X13498000Y-13588000D01*
X13625000Y-13560000D02*
X13780000Y-13560000D01*
X13780000Y-13560000D02*
X13780000Y-13870000D01*
X13375000Y-15315000D02*
X14735000Y-15315000D01*
X14735000Y-15315000D02*
X14735000Y-14285000D01*
X14735000Y-14285000D02*
X12015000Y-14285000D01*
X12015000Y-14285000D02*
X12015000Y-15315000D01*
X12015000Y-15315000D02*
X13375000Y-15315000D01*
X13300000Y-15315000D02*
X13300000Y-15565000D01*
X13300000Y-15565000D02*
X13900000Y-15565000D01*
X13900000Y-15565000D02*
X13900000Y-15315000D01*
X13300000Y-15315000D02*
X13300000Y-14165000D01*
X13300000Y-14165000D02*
X13900000Y-14165000D01*
X13900000Y-14165000D02*
X13900000Y-15315000D01*
X13900000Y-15315000D02*
X13300000Y-15315000D01*
X12885000Y-13260000D02*
X12885000Y-12910000D01*
X12885000Y-12910000D02*
X13835000Y-12910000D01*
X13835000Y-12910000D02*
X13835000Y-13260000D01*
X13860000Y-16160000D02*
X12860000Y-16160000D01*
X14135000Y-15710000D02*
X13860000Y-16160000D01*
X12810000Y-15710000D02*
X12585000Y-15710000D01*
X14135000Y-15710000D02*
X13910000Y-15710000D01*
X12810000Y-15710000D02*
X12585000Y-15710000D01*
X12585000Y-15710000D02*
X12860000Y-16160000D01*
X12810000Y-15310000D02*
X12810000Y-15710000D01*
X12810000Y-15710000D02*
X13910000Y-15710000D01*
X13910000Y-15710000D02*
X13910000Y-15310000D01*
X14360000Y-15310000D02*
X12360000Y-15310000D01*
X14360000Y-15210000D02*
X12360000Y-15210000D01*
X12360000Y-13260000D02*
X14360000Y-13260000D01*
X14360000Y-15210000D02*
X14360000Y-13260000D01*
X12360000Y-15210000D02*
X12360000Y-13260000D01*
M02*
