G04 #@! TF.FileFunction,Copper,L2,Bot,Signal*
%FSLAX45Y45*%
G04 Gerber Fmt 4.5, Leading zero omitted, Abs format (unit mm)*
G04 Created by KiCad (PCBNEW 4.0.6+dfsg1-1) date Sat Nov  4 13:52:50 2017*
%MOMM*%
%LPD*%
G01*
G04 APERTURE LIST*
%ADD10C,0.150000*%
%ADD11R,1.727200X2.032000*%
%ADD12O,1.727200X2.032000*%
%ADD13C,1.750060*%
%ADD14R,1.750060X1.750060*%
%ADD15R,4.000000X3.200000*%
%ADD16C,3.000000*%
%ADD17R,2.500000X3.500000*%
%ADD18O,1.500000X2.800000*%
%ADD19O,1.500000X2.900000*%
%ADD20C,1.700000*%
%ADD21R,1.800860X2.199640*%
%ADD22O,1.800860X2.199640*%
%ADD23C,4.064000*%
%ADD24C,0.889000*%
%ADD25C,0.200000*%
%ADD26C,0.254000*%
G04 APERTURE END LIST*
D10*
X14975000Y-15315000D02*
X14975000Y-13690000D01*
X10450000Y-13490000D02*
X14825000Y-13490000D01*
X10225000Y-15315000D02*
X10225000Y-13715000D01*
X14975000Y-13690000D02*
G75*
G03X14825000Y-13490000I-175000J25000D01*
G01*
X10450000Y-13490000D02*
G75*
G03X10225000Y-13715000I0J-225000D01*
G01*
X14975000Y-15315000D02*
X10225000Y-15315000D01*
D11*
X10975000Y-13915000D03*
D12*
X10721000Y-13915000D03*
X10467000Y-13915000D03*
D13*
X10949936Y-14564938D03*
D14*
X10450064Y-14564938D03*
D13*
X10700000Y-14564938D03*
X10700000Y-14814874D03*
D14*
X10450064Y-14814874D03*
D13*
X10949936Y-14814874D03*
D11*
X13625000Y-13715000D03*
D12*
X13371000Y-13715000D03*
X13125000Y-13715000D03*
D15*
X14075000Y-14815000D03*
X12675000Y-14815000D03*
D16*
X14475000Y-14290000D03*
X13075000Y-14290000D03*
D17*
X14665000Y-14715000D03*
X12085000Y-14715000D03*
D18*
X13890000Y-15135000D03*
X13310000Y-15135000D03*
X13310000Y-14815000D03*
X13310000Y-14465000D03*
D19*
X13900000Y-14465000D03*
D20*
X13600000Y-15065000D03*
X13600000Y-14465000D03*
D21*
X12510000Y-14889884D03*
D22*
X12510000Y-14259964D03*
X12510000Y-13630044D03*
D21*
X14210000Y-14889884D03*
D22*
X14210000Y-14259964D03*
X14210000Y-13630044D03*
D23*
X12200000Y-13920000D03*
X14700000Y-13910000D03*
D24*
X13755000Y-14270000D03*
X13455000Y-14270000D03*
X11785000Y-14575000D03*
X11315000Y-14895000D03*
X10615000Y-15155000D03*
X11970000Y-13625000D03*
X11830000Y-14095000D03*
X11340000Y-14140000D03*
X11350000Y-13665000D03*
X12825000Y-13770000D03*
X14035000Y-13585000D03*
X14530000Y-13585000D03*
X14330000Y-13900000D03*
X14060000Y-13860000D03*
X14020000Y-14050000D03*
X13380000Y-14010000D03*
X14790000Y-14340000D03*
X14510000Y-15130000D03*
D25*
X10700000Y-14814874D02*
X10927892Y-15042766D01*
X10927892Y-15042766D02*
X12870954Y-15042766D01*
X12870954Y-15042766D02*
X12910400Y-15003320D01*
X12910400Y-15003320D02*
X12910400Y-14929600D01*
X12910400Y-14929600D02*
X13310000Y-14530000D01*
X13310000Y-14530000D02*
X13310000Y-14465000D01*
X10700000Y-14564938D02*
X10844938Y-14420000D01*
X10844938Y-14420000D02*
X12732868Y-14420000D01*
X12732868Y-14420000D02*
X12862868Y-14290000D01*
X12862868Y-14290000D02*
X13075000Y-14290000D01*
X13380000Y-14195000D02*
X13410550Y-14225550D01*
X13380000Y-14010000D02*
X13380000Y-14195000D01*
X13410550Y-14225550D02*
X13455000Y-14270000D01*
X12985000Y-14725000D02*
X12985000Y-14675000D01*
X12675000Y-14815000D02*
X12895000Y-14815000D01*
X12895000Y-14815000D02*
X12985000Y-14725000D01*
X11315000Y-14895000D02*
X11635000Y-14575000D01*
X11635000Y-14575000D02*
X11785000Y-14575000D01*
X10672687Y-15145000D02*
X10625000Y-15145000D01*
X10625000Y-15145000D02*
X10615000Y-15155000D01*
X10450064Y-14814874D02*
X10450064Y-14922377D01*
X10450064Y-14922377D02*
X10672687Y-15145000D01*
X11830000Y-14095000D02*
X11830000Y-13765000D01*
X11830000Y-13765000D02*
X11970000Y-13625000D01*
X11350000Y-13665000D02*
X11350000Y-14130000D01*
X11350000Y-14130000D02*
X11340000Y-14140000D01*
X14060000Y-13860000D02*
X14060000Y-13610000D01*
X14060000Y-13610000D02*
X14035000Y-13585000D01*
X14060000Y-13860000D02*
X14290000Y-13860000D01*
X14290000Y-13860000D02*
X14330000Y-13900000D01*
X13380000Y-14010000D02*
X13980000Y-14010000D01*
X13980000Y-14010000D02*
X14020000Y-14050000D01*
X14860000Y-15000000D02*
X14860000Y-14410000D01*
X14860000Y-14410000D02*
X14790000Y-14340000D01*
X14730000Y-15130000D02*
X14860000Y-15000000D01*
X14510000Y-15130000D02*
X14730000Y-15130000D01*
X13890000Y-15135000D02*
X13708192Y-15135000D01*
X13708192Y-15135000D02*
X13657792Y-15185400D01*
X13657792Y-15185400D02*
X13455400Y-15185400D01*
X13455400Y-15185400D02*
X13405000Y-15135000D01*
X13405000Y-15135000D02*
X13310000Y-15135000D01*
X14207500Y-14897384D02*
X14097457Y-14897384D01*
X14097457Y-14897384D02*
X14075000Y-14874927D01*
X14075000Y-14874927D02*
X14075000Y-14815000D01*
X13890000Y-15135000D02*
X13890000Y-15070000D01*
X13890000Y-15070000D02*
X14075000Y-14885000D01*
X14075000Y-14885000D02*
X14075000Y-14815000D01*
D26*
G36*
X12356457Y-13606706D02*
X12356457Y-13653382D01*
X12366604Y-13704395D01*
X12351271Y-13689034D01*
X12253283Y-13648346D01*
X12147183Y-13648254D01*
X12049124Y-13688771D01*
X11974034Y-13763729D01*
X11933346Y-13861717D01*
X11933254Y-13967817D01*
X11973771Y-14065876D01*
X12048729Y-14140965D01*
X12146717Y-14181654D01*
X12252817Y-14181746D01*
X12350876Y-14141229D01*
X12425965Y-14066271D01*
X12466654Y-13968283D01*
X12466746Y-13862183D01*
X12434448Y-13784016D01*
X12451242Y-13795237D01*
X12510000Y-13806925D01*
X12568758Y-13795237D01*
X12618571Y-13761953D01*
X12651855Y-13712140D01*
X12663543Y-13653382D01*
X12663543Y-13606706D01*
X12654451Y-13561000D01*
X13063270Y-13561000D01*
X13019033Y-13590558D01*
X12986547Y-13639177D01*
X12975140Y-13696525D01*
X12975140Y-13733474D01*
X12986547Y-13790823D01*
X13019033Y-13839441D01*
X13067651Y-13871927D01*
X13125000Y-13883334D01*
X13182349Y-13871927D01*
X13230967Y-13839441D01*
X13248223Y-13813616D01*
X13280796Y-13850073D01*
X13333521Y-13875471D01*
X13335097Y-13875736D01*
X13358300Y-13863622D01*
X13358300Y-13727700D01*
X13356300Y-13727700D01*
X13356300Y-13702300D01*
X13358300Y-13702300D01*
X13358300Y-13700300D01*
X13383700Y-13700300D01*
X13383700Y-13702300D01*
X13385700Y-13702300D01*
X13385700Y-13727700D01*
X13383700Y-13727700D01*
X13383700Y-13863622D01*
X13406903Y-13875736D01*
X13408479Y-13875471D01*
X13461204Y-13850073D01*
X13476891Y-13832515D01*
X13478324Y-13840132D01*
X13492231Y-13861744D01*
X13513451Y-13876243D01*
X13538640Y-13881344D01*
X13711360Y-13881344D01*
X13734892Y-13876916D01*
X13756504Y-13863009D01*
X13771003Y-13841789D01*
X13776104Y-13816600D01*
X13776104Y-13613400D01*
X13771676Y-13589868D01*
X13757769Y-13568256D01*
X13747150Y-13561000D01*
X14065549Y-13561000D01*
X14056457Y-13606706D01*
X14056457Y-13653382D01*
X14068145Y-13712140D01*
X14101429Y-13761953D01*
X14151242Y-13795237D01*
X14210000Y-13806925D01*
X14268758Y-13795237D01*
X14318571Y-13761953D01*
X14351855Y-13712140D01*
X14363543Y-13653382D01*
X14363543Y-13606706D01*
X14354451Y-13561000D01*
X14812876Y-13561000D01*
X14853184Y-13575179D01*
X14860642Y-13581866D01*
X14902148Y-13657960D01*
X14904000Y-13691934D01*
X14904000Y-13741856D01*
X14851271Y-13689034D01*
X14753283Y-13648346D01*
X14647183Y-13648254D01*
X14549124Y-13688771D01*
X14474034Y-13763729D01*
X14433346Y-13861717D01*
X14433254Y-13967817D01*
X14473771Y-14065876D01*
X14484384Y-14076508D01*
X14432718Y-14076463D01*
X14354220Y-14108898D01*
X14325157Y-14137911D01*
X14318571Y-14128055D01*
X14268758Y-14094771D01*
X14210000Y-14083083D01*
X14151242Y-14094771D01*
X14101429Y-14128055D01*
X14068145Y-14177868D01*
X14056457Y-14236626D01*
X14056457Y-14283302D01*
X14068145Y-14342060D01*
X14101429Y-14391873D01*
X14151242Y-14425157D01*
X14210000Y-14436845D01*
X14268758Y-14425157D01*
X14293114Y-14408883D01*
X14293898Y-14410780D01*
X14353904Y-14470891D01*
X14432346Y-14503463D01*
X14488077Y-14503511D01*
X14480357Y-14514811D01*
X14475256Y-14540000D01*
X14475256Y-14890000D01*
X14479684Y-14913532D01*
X14493591Y-14935144D01*
X14514811Y-14949643D01*
X14540000Y-14954744D01*
X14790000Y-14954744D01*
X14813532Y-14950316D01*
X14835144Y-14936409D01*
X14849643Y-14915189D01*
X14854744Y-14890000D01*
X14854744Y-14540000D01*
X14850316Y-14516468D01*
X14836409Y-14494856D01*
X14815189Y-14480357D01*
X14790000Y-14475256D01*
X14585727Y-14475256D01*
X14595780Y-14471102D01*
X14655891Y-14411096D01*
X14688463Y-14332654D01*
X14688537Y-14247718D01*
X14661245Y-14181666D01*
X14752817Y-14181746D01*
X14850876Y-14141229D01*
X14904000Y-14088198D01*
X14904000Y-15244000D01*
X14019235Y-15244000D01*
X14028500Y-15212700D01*
X14028500Y-15147700D01*
X13902700Y-15147700D01*
X13902700Y-15149700D01*
X13877300Y-15149700D01*
X13877300Y-15147700D01*
X13751500Y-15147700D01*
X13751500Y-15212700D01*
X13760765Y-15244000D01*
X13439235Y-15244000D01*
X13448500Y-15212700D01*
X13448500Y-15147700D01*
X13322700Y-15147700D01*
X13322700Y-15149700D01*
X13297300Y-15149700D01*
X13297300Y-15147700D01*
X13171500Y-15147700D01*
X13171500Y-15212700D01*
X13180765Y-15244000D01*
X10296000Y-15244000D01*
X10296000Y-14843449D01*
X10299061Y-14843449D01*
X10299061Y-14915008D01*
X10308728Y-14938347D01*
X10326591Y-14956210D01*
X10349930Y-14965877D01*
X10421489Y-14965877D01*
X10437364Y-14950002D01*
X10437364Y-14827574D01*
X10314936Y-14827574D01*
X10299061Y-14843449D01*
X10296000Y-14843449D01*
X10296000Y-14593513D01*
X10299061Y-14593513D01*
X10299061Y-14665072D01*
X10308728Y-14688411D01*
X10310224Y-14689906D01*
X10308728Y-14691401D01*
X10299061Y-14714740D01*
X10299061Y-14786299D01*
X10314936Y-14802174D01*
X10437364Y-14802174D01*
X10437364Y-14577638D01*
X10314936Y-14577638D01*
X10299061Y-14593513D01*
X10296000Y-14593513D01*
X10296000Y-14464804D01*
X10299061Y-14464804D01*
X10299061Y-14536363D01*
X10314936Y-14552238D01*
X10437364Y-14552238D01*
X10437364Y-14429810D01*
X10462764Y-14429810D01*
X10462764Y-14552238D01*
X10464764Y-14552238D01*
X10464764Y-14577638D01*
X10462764Y-14577638D01*
X10462764Y-14802174D01*
X10464764Y-14802174D01*
X10464764Y-14827574D01*
X10462764Y-14827574D01*
X10462764Y-14950002D01*
X10478639Y-14965877D01*
X10550198Y-14965877D01*
X10573537Y-14956210D01*
X10591400Y-14938347D01*
X10596823Y-14925254D01*
X10614352Y-14942813D01*
X10669832Y-14965851D01*
X10729905Y-14965903D01*
X10742061Y-14960880D01*
X10875920Y-15094738D01*
X10899765Y-15110671D01*
X10927892Y-15116266D01*
X12870954Y-15116266D01*
X12899081Y-15110671D01*
X12922926Y-15094738D01*
X12962372Y-15055292D01*
X12978305Y-15031447D01*
X12983900Y-15003320D01*
X12983900Y-14960044D01*
X13171500Y-14772445D01*
X13171500Y-14883987D01*
X13182043Y-14936988D01*
X13209232Y-14977680D01*
X13186903Y-15005265D01*
X13171500Y-15057300D01*
X13171500Y-15122300D01*
X13297300Y-15122300D01*
X13297300Y-15120300D01*
X13322700Y-15120300D01*
X13322700Y-15122300D01*
X13448500Y-15122300D01*
X13448500Y-15094409D01*
X13451474Y-15094409D01*
X13474034Y-15149009D01*
X13515772Y-15190819D01*
X13570332Y-15213474D01*
X13629409Y-15213526D01*
X13684009Y-15190966D01*
X13725819Y-15149228D01*
X13748474Y-15094668D01*
X13748507Y-15057300D01*
X13751500Y-15057300D01*
X13751500Y-15122300D01*
X13877300Y-15122300D01*
X13877300Y-15120300D01*
X13902700Y-15120300D01*
X13902700Y-15122300D01*
X14028500Y-15122300D01*
X14028500Y-15057300D01*
X14022935Y-15038500D01*
X14046425Y-15038500D01*
X14061135Y-15023790D01*
X14062300Y-15026603D01*
X14062300Y-15038500D01*
X14068788Y-15038500D01*
X14083987Y-15053699D01*
X14107326Y-15063366D01*
X14181425Y-15063366D01*
X14197300Y-15047491D01*
X14197300Y-15038500D01*
X14222700Y-15038500D01*
X14222700Y-15047491D01*
X14238575Y-15063366D01*
X14312674Y-15063366D01*
X14336013Y-15053699D01*
X14353876Y-15035836D01*
X14363543Y-15012497D01*
X14363543Y-14918459D01*
X14347668Y-14902584D01*
X14338500Y-14902584D01*
X14338500Y-14877184D01*
X14347668Y-14877184D01*
X14363543Y-14861309D01*
X14363543Y-14767271D01*
X14353876Y-14743932D01*
X14338500Y-14728556D01*
X14338500Y-14642369D01*
X14328833Y-14619030D01*
X14310970Y-14601167D01*
X14287631Y-14591500D01*
X14103575Y-14591500D01*
X14087700Y-14607375D01*
X14087700Y-14724531D01*
X14083987Y-14726069D01*
X14066124Y-14743932D01*
X14062300Y-14753165D01*
X14062300Y-14607375D01*
X14046425Y-14591500D01*
X14028074Y-14591500D01*
X14038500Y-14539085D01*
X14038500Y-14390915D01*
X14027957Y-14337913D01*
X13997934Y-14292981D01*
X13953002Y-14262958D01*
X13900000Y-14252415D01*
X13846998Y-14262958D01*
X13802066Y-14292981D01*
X13772043Y-14337913D01*
X13761500Y-14390915D01*
X13761500Y-14539085D01*
X13772043Y-14592086D01*
X13802066Y-14637019D01*
X13811500Y-14643323D01*
X13811500Y-14786425D01*
X13827375Y-14802300D01*
X14056457Y-14802300D01*
X14056457Y-14827700D01*
X13827375Y-14827700D01*
X13811500Y-14843575D01*
X13811500Y-14957407D01*
X13801046Y-14963085D01*
X13766903Y-15005265D01*
X13751500Y-15057300D01*
X13748507Y-15057300D01*
X13748526Y-15035591D01*
X13725966Y-14980991D01*
X13684228Y-14939181D01*
X13629668Y-14916526D01*
X13570591Y-14916474D01*
X13515991Y-14939034D01*
X13474181Y-14980772D01*
X13451526Y-15035332D01*
X13451474Y-15094409D01*
X13448500Y-15094409D01*
X13448500Y-15057300D01*
X13433097Y-15005265D01*
X13410768Y-14977680D01*
X13437957Y-14936988D01*
X13448500Y-14883987D01*
X13448500Y-14746013D01*
X13437957Y-14693011D01*
X13407934Y-14648079D01*
X13395843Y-14640000D01*
X13407934Y-14631921D01*
X13437957Y-14586988D01*
X13448500Y-14533987D01*
X13448500Y-14494409D01*
X13451474Y-14494409D01*
X13474034Y-14549009D01*
X13515772Y-14590819D01*
X13570332Y-14613474D01*
X13629409Y-14613526D01*
X13684009Y-14590966D01*
X13725819Y-14549228D01*
X13748474Y-14494668D01*
X13748526Y-14435591D01*
X13725966Y-14380991D01*
X13684228Y-14339181D01*
X13629668Y-14316526D01*
X13570591Y-14316474D01*
X13515991Y-14339034D01*
X13474181Y-14380772D01*
X13451526Y-14435332D01*
X13451474Y-14494409D01*
X13448500Y-14494409D01*
X13448500Y-14396013D01*
X13437957Y-14343011D01*
X13407934Y-14298079D01*
X13363002Y-14268056D01*
X13310000Y-14257513D01*
X13288525Y-14261785D01*
X13288537Y-14247718D01*
X13256102Y-14169220D01*
X13196096Y-14109109D01*
X13117654Y-14076537D01*
X13032718Y-14076463D01*
X12954220Y-14108898D01*
X12894109Y-14168904D01*
X12874345Y-14216500D01*
X12862868Y-14216500D01*
X12834741Y-14222095D01*
X12810896Y-14238028D01*
X12702423Y-14346500D01*
X12648889Y-14346500D01*
X12651855Y-14342060D01*
X12663543Y-14283302D01*
X12663543Y-14236626D01*
X12651855Y-14177868D01*
X12618571Y-14128055D01*
X12568758Y-14094771D01*
X12510000Y-14083083D01*
X12451242Y-14094771D01*
X12401429Y-14128055D01*
X12368145Y-14177868D01*
X12356457Y-14236626D01*
X12356457Y-14283302D01*
X12368145Y-14342060D01*
X12371111Y-14346500D01*
X10844938Y-14346500D01*
X10816811Y-14352095D01*
X10792966Y-14368028D01*
X10742084Y-14418909D01*
X10730168Y-14413961D01*
X10670095Y-14413909D01*
X10614575Y-14436849D01*
X10596827Y-14454567D01*
X10591400Y-14441465D01*
X10573537Y-14423602D01*
X10550198Y-14413935D01*
X10478639Y-14413935D01*
X10462764Y-14429810D01*
X10437364Y-14429810D01*
X10421489Y-14413935D01*
X10349930Y-14413935D01*
X10326591Y-14423602D01*
X10308728Y-14441465D01*
X10299061Y-14464804D01*
X10296000Y-14464804D01*
X10296000Y-13896525D01*
X10317140Y-13896525D01*
X10317140Y-13933474D01*
X10328547Y-13990823D01*
X10361033Y-14039441D01*
X10409651Y-14071927D01*
X10467000Y-14083334D01*
X10524349Y-14071927D01*
X10572967Y-14039441D01*
X10593646Y-14008493D01*
X10630796Y-14050073D01*
X10683521Y-14075471D01*
X10685097Y-14075736D01*
X10708300Y-14063622D01*
X10708300Y-13927700D01*
X10706300Y-13927700D01*
X10706300Y-13902300D01*
X10708300Y-13902300D01*
X10708300Y-13766378D01*
X10733700Y-13766378D01*
X10733700Y-13902300D01*
X10735700Y-13902300D01*
X10735700Y-13927700D01*
X10733700Y-13927700D01*
X10733700Y-14063622D01*
X10756903Y-14075736D01*
X10758479Y-14075471D01*
X10811204Y-14050073D01*
X10826891Y-14032515D01*
X10828324Y-14040132D01*
X10842231Y-14061744D01*
X10863451Y-14076243D01*
X10888640Y-14081344D01*
X11061360Y-14081344D01*
X11084892Y-14076916D01*
X11106504Y-14063009D01*
X11121003Y-14041789D01*
X11126104Y-14016600D01*
X11126104Y-13813400D01*
X11121676Y-13789868D01*
X11107769Y-13768256D01*
X11086549Y-13753757D01*
X11061360Y-13748656D01*
X10888640Y-13748656D01*
X10865108Y-13753084D01*
X10843496Y-13766991D01*
X10828997Y-13788211D01*
X10827077Y-13797693D01*
X10811204Y-13779927D01*
X10758479Y-13754529D01*
X10756903Y-13754264D01*
X10733700Y-13766378D01*
X10708300Y-13766378D01*
X10685097Y-13754264D01*
X10683521Y-13754529D01*
X10630796Y-13779927D01*
X10593646Y-13821507D01*
X10572967Y-13790558D01*
X10524349Y-13758073D01*
X10467000Y-13746665D01*
X10409651Y-13758073D01*
X10361033Y-13790558D01*
X10328547Y-13839177D01*
X10317140Y-13896525D01*
X10296000Y-13896525D01*
X10296000Y-13721993D01*
X10298753Y-13708152D01*
X10403396Y-13571661D01*
X10456993Y-13561000D01*
X12365549Y-13561000D01*
X12356457Y-13606706D01*
X12356457Y-13606706D01*
G37*
X12356457Y-13606706D02*
X12356457Y-13653382D01*
X12366604Y-13704395D01*
X12351271Y-13689034D01*
X12253283Y-13648346D01*
X12147183Y-13648254D01*
X12049124Y-13688771D01*
X11974034Y-13763729D01*
X11933346Y-13861717D01*
X11933254Y-13967817D01*
X11973771Y-14065876D01*
X12048729Y-14140965D01*
X12146717Y-14181654D01*
X12252817Y-14181746D01*
X12350876Y-14141229D01*
X12425965Y-14066271D01*
X12466654Y-13968283D01*
X12466746Y-13862183D01*
X12434448Y-13784016D01*
X12451242Y-13795237D01*
X12510000Y-13806925D01*
X12568758Y-13795237D01*
X12618571Y-13761953D01*
X12651855Y-13712140D01*
X12663543Y-13653382D01*
X12663543Y-13606706D01*
X12654451Y-13561000D01*
X13063270Y-13561000D01*
X13019033Y-13590558D01*
X12986547Y-13639177D01*
X12975140Y-13696525D01*
X12975140Y-13733474D01*
X12986547Y-13790823D01*
X13019033Y-13839441D01*
X13067651Y-13871927D01*
X13125000Y-13883334D01*
X13182349Y-13871927D01*
X13230967Y-13839441D01*
X13248223Y-13813616D01*
X13280796Y-13850073D01*
X13333521Y-13875471D01*
X13335097Y-13875736D01*
X13358300Y-13863622D01*
X13358300Y-13727700D01*
X13356300Y-13727700D01*
X13356300Y-13702300D01*
X13358300Y-13702300D01*
X13358300Y-13700300D01*
X13383700Y-13700300D01*
X13383700Y-13702300D01*
X13385700Y-13702300D01*
X13385700Y-13727700D01*
X13383700Y-13727700D01*
X13383700Y-13863622D01*
X13406903Y-13875736D01*
X13408479Y-13875471D01*
X13461204Y-13850073D01*
X13476891Y-13832515D01*
X13478324Y-13840132D01*
X13492231Y-13861744D01*
X13513451Y-13876243D01*
X13538640Y-13881344D01*
X13711360Y-13881344D01*
X13734892Y-13876916D01*
X13756504Y-13863009D01*
X13771003Y-13841789D01*
X13776104Y-13816600D01*
X13776104Y-13613400D01*
X13771676Y-13589868D01*
X13757769Y-13568256D01*
X13747150Y-13561000D01*
X14065549Y-13561000D01*
X14056457Y-13606706D01*
X14056457Y-13653382D01*
X14068145Y-13712140D01*
X14101429Y-13761953D01*
X14151242Y-13795237D01*
X14210000Y-13806925D01*
X14268758Y-13795237D01*
X14318571Y-13761953D01*
X14351855Y-13712140D01*
X14363543Y-13653382D01*
X14363543Y-13606706D01*
X14354451Y-13561000D01*
X14812876Y-13561000D01*
X14853184Y-13575179D01*
X14860642Y-13581866D01*
X14902148Y-13657960D01*
X14904000Y-13691934D01*
X14904000Y-13741856D01*
X14851271Y-13689034D01*
X14753283Y-13648346D01*
X14647183Y-13648254D01*
X14549124Y-13688771D01*
X14474034Y-13763729D01*
X14433346Y-13861717D01*
X14433254Y-13967817D01*
X14473771Y-14065876D01*
X14484384Y-14076508D01*
X14432718Y-14076463D01*
X14354220Y-14108898D01*
X14325157Y-14137911D01*
X14318571Y-14128055D01*
X14268758Y-14094771D01*
X14210000Y-14083083D01*
X14151242Y-14094771D01*
X14101429Y-14128055D01*
X14068145Y-14177868D01*
X14056457Y-14236626D01*
X14056457Y-14283302D01*
X14068145Y-14342060D01*
X14101429Y-14391873D01*
X14151242Y-14425157D01*
X14210000Y-14436845D01*
X14268758Y-14425157D01*
X14293114Y-14408883D01*
X14293898Y-14410780D01*
X14353904Y-14470891D01*
X14432346Y-14503463D01*
X14488077Y-14503511D01*
X14480357Y-14514811D01*
X14475256Y-14540000D01*
X14475256Y-14890000D01*
X14479684Y-14913532D01*
X14493591Y-14935144D01*
X14514811Y-14949643D01*
X14540000Y-14954744D01*
X14790000Y-14954744D01*
X14813532Y-14950316D01*
X14835144Y-14936409D01*
X14849643Y-14915189D01*
X14854744Y-14890000D01*
X14854744Y-14540000D01*
X14850316Y-14516468D01*
X14836409Y-14494856D01*
X14815189Y-14480357D01*
X14790000Y-14475256D01*
X14585727Y-14475256D01*
X14595780Y-14471102D01*
X14655891Y-14411096D01*
X14688463Y-14332654D01*
X14688537Y-14247718D01*
X14661245Y-14181666D01*
X14752817Y-14181746D01*
X14850876Y-14141229D01*
X14904000Y-14088198D01*
X14904000Y-15244000D01*
X14019235Y-15244000D01*
X14028500Y-15212700D01*
X14028500Y-15147700D01*
X13902700Y-15147700D01*
X13902700Y-15149700D01*
X13877300Y-15149700D01*
X13877300Y-15147700D01*
X13751500Y-15147700D01*
X13751500Y-15212700D01*
X13760765Y-15244000D01*
X13439235Y-15244000D01*
X13448500Y-15212700D01*
X13448500Y-15147700D01*
X13322700Y-15147700D01*
X13322700Y-15149700D01*
X13297300Y-15149700D01*
X13297300Y-15147700D01*
X13171500Y-15147700D01*
X13171500Y-15212700D01*
X13180765Y-15244000D01*
X10296000Y-15244000D01*
X10296000Y-14843449D01*
X10299061Y-14843449D01*
X10299061Y-14915008D01*
X10308728Y-14938347D01*
X10326591Y-14956210D01*
X10349930Y-14965877D01*
X10421489Y-14965877D01*
X10437364Y-14950002D01*
X10437364Y-14827574D01*
X10314936Y-14827574D01*
X10299061Y-14843449D01*
X10296000Y-14843449D01*
X10296000Y-14593513D01*
X10299061Y-14593513D01*
X10299061Y-14665072D01*
X10308728Y-14688411D01*
X10310224Y-14689906D01*
X10308728Y-14691401D01*
X10299061Y-14714740D01*
X10299061Y-14786299D01*
X10314936Y-14802174D01*
X10437364Y-14802174D01*
X10437364Y-14577638D01*
X10314936Y-14577638D01*
X10299061Y-14593513D01*
X10296000Y-14593513D01*
X10296000Y-14464804D01*
X10299061Y-14464804D01*
X10299061Y-14536363D01*
X10314936Y-14552238D01*
X10437364Y-14552238D01*
X10437364Y-14429810D01*
X10462764Y-14429810D01*
X10462764Y-14552238D01*
X10464764Y-14552238D01*
X10464764Y-14577638D01*
X10462764Y-14577638D01*
X10462764Y-14802174D01*
X10464764Y-14802174D01*
X10464764Y-14827574D01*
X10462764Y-14827574D01*
X10462764Y-14950002D01*
X10478639Y-14965877D01*
X10550198Y-14965877D01*
X10573537Y-14956210D01*
X10591400Y-14938347D01*
X10596823Y-14925254D01*
X10614352Y-14942813D01*
X10669832Y-14965851D01*
X10729905Y-14965903D01*
X10742061Y-14960880D01*
X10875920Y-15094738D01*
X10899765Y-15110671D01*
X10927892Y-15116266D01*
X12870954Y-15116266D01*
X12899081Y-15110671D01*
X12922926Y-15094738D01*
X12962372Y-15055292D01*
X12978305Y-15031447D01*
X12983900Y-15003320D01*
X12983900Y-14960044D01*
X13171500Y-14772445D01*
X13171500Y-14883987D01*
X13182043Y-14936988D01*
X13209232Y-14977680D01*
X13186903Y-15005265D01*
X13171500Y-15057300D01*
X13171500Y-15122300D01*
X13297300Y-15122300D01*
X13297300Y-15120300D01*
X13322700Y-15120300D01*
X13322700Y-15122300D01*
X13448500Y-15122300D01*
X13448500Y-15094409D01*
X13451474Y-15094409D01*
X13474034Y-15149009D01*
X13515772Y-15190819D01*
X13570332Y-15213474D01*
X13629409Y-15213526D01*
X13684009Y-15190966D01*
X13725819Y-15149228D01*
X13748474Y-15094668D01*
X13748507Y-15057300D01*
X13751500Y-15057300D01*
X13751500Y-15122300D01*
X13877300Y-15122300D01*
X13877300Y-15120300D01*
X13902700Y-15120300D01*
X13902700Y-15122300D01*
X14028500Y-15122300D01*
X14028500Y-15057300D01*
X14022935Y-15038500D01*
X14046425Y-15038500D01*
X14061135Y-15023790D01*
X14062300Y-15026603D01*
X14062300Y-15038500D01*
X14068788Y-15038500D01*
X14083987Y-15053699D01*
X14107326Y-15063366D01*
X14181425Y-15063366D01*
X14197300Y-15047491D01*
X14197300Y-15038500D01*
X14222700Y-15038500D01*
X14222700Y-15047491D01*
X14238575Y-15063366D01*
X14312674Y-15063366D01*
X14336013Y-15053699D01*
X14353876Y-15035836D01*
X14363543Y-15012497D01*
X14363543Y-14918459D01*
X14347668Y-14902584D01*
X14338500Y-14902584D01*
X14338500Y-14877184D01*
X14347668Y-14877184D01*
X14363543Y-14861309D01*
X14363543Y-14767271D01*
X14353876Y-14743932D01*
X14338500Y-14728556D01*
X14338500Y-14642369D01*
X14328833Y-14619030D01*
X14310970Y-14601167D01*
X14287631Y-14591500D01*
X14103575Y-14591500D01*
X14087700Y-14607375D01*
X14087700Y-14724531D01*
X14083987Y-14726069D01*
X14066124Y-14743932D01*
X14062300Y-14753165D01*
X14062300Y-14607375D01*
X14046425Y-14591500D01*
X14028074Y-14591500D01*
X14038500Y-14539085D01*
X14038500Y-14390915D01*
X14027957Y-14337913D01*
X13997934Y-14292981D01*
X13953002Y-14262958D01*
X13900000Y-14252415D01*
X13846998Y-14262958D01*
X13802066Y-14292981D01*
X13772043Y-14337913D01*
X13761500Y-14390915D01*
X13761500Y-14539085D01*
X13772043Y-14592086D01*
X13802066Y-14637019D01*
X13811500Y-14643323D01*
X13811500Y-14786425D01*
X13827375Y-14802300D01*
X14056457Y-14802300D01*
X14056457Y-14827700D01*
X13827375Y-14827700D01*
X13811500Y-14843575D01*
X13811500Y-14957407D01*
X13801046Y-14963085D01*
X13766903Y-15005265D01*
X13751500Y-15057300D01*
X13748507Y-15057300D01*
X13748526Y-15035591D01*
X13725966Y-14980991D01*
X13684228Y-14939181D01*
X13629668Y-14916526D01*
X13570591Y-14916474D01*
X13515991Y-14939034D01*
X13474181Y-14980772D01*
X13451526Y-15035332D01*
X13451474Y-15094409D01*
X13448500Y-15094409D01*
X13448500Y-15057300D01*
X13433097Y-15005265D01*
X13410768Y-14977680D01*
X13437957Y-14936988D01*
X13448500Y-14883987D01*
X13448500Y-14746013D01*
X13437957Y-14693011D01*
X13407934Y-14648079D01*
X13395843Y-14640000D01*
X13407934Y-14631921D01*
X13437957Y-14586988D01*
X13448500Y-14533987D01*
X13448500Y-14494409D01*
X13451474Y-14494409D01*
X13474034Y-14549009D01*
X13515772Y-14590819D01*
X13570332Y-14613474D01*
X13629409Y-14613526D01*
X13684009Y-14590966D01*
X13725819Y-14549228D01*
X13748474Y-14494668D01*
X13748526Y-14435591D01*
X13725966Y-14380991D01*
X13684228Y-14339181D01*
X13629668Y-14316526D01*
X13570591Y-14316474D01*
X13515991Y-14339034D01*
X13474181Y-14380772D01*
X13451526Y-14435332D01*
X13451474Y-14494409D01*
X13448500Y-14494409D01*
X13448500Y-14396013D01*
X13437957Y-14343011D01*
X13407934Y-14298079D01*
X13363002Y-14268056D01*
X13310000Y-14257513D01*
X13288525Y-14261785D01*
X13288537Y-14247718D01*
X13256102Y-14169220D01*
X13196096Y-14109109D01*
X13117654Y-14076537D01*
X13032718Y-14076463D01*
X12954220Y-14108898D01*
X12894109Y-14168904D01*
X12874345Y-14216500D01*
X12862868Y-14216500D01*
X12834741Y-14222095D01*
X12810896Y-14238028D01*
X12702423Y-14346500D01*
X12648889Y-14346500D01*
X12651855Y-14342060D01*
X12663543Y-14283302D01*
X12663543Y-14236626D01*
X12651855Y-14177868D01*
X12618571Y-14128055D01*
X12568758Y-14094771D01*
X12510000Y-14083083D01*
X12451242Y-14094771D01*
X12401429Y-14128055D01*
X12368145Y-14177868D01*
X12356457Y-14236626D01*
X12356457Y-14283302D01*
X12368145Y-14342060D01*
X12371111Y-14346500D01*
X10844938Y-14346500D01*
X10816811Y-14352095D01*
X10792966Y-14368028D01*
X10742084Y-14418909D01*
X10730168Y-14413961D01*
X10670095Y-14413909D01*
X10614575Y-14436849D01*
X10596827Y-14454567D01*
X10591400Y-14441465D01*
X10573537Y-14423602D01*
X10550198Y-14413935D01*
X10478639Y-14413935D01*
X10462764Y-14429810D01*
X10437364Y-14429810D01*
X10421489Y-14413935D01*
X10349930Y-14413935D01*
X10326591Y-14423602D01*
X10308728Y-14441465D01*
X10299061Y-14464804D01*
X10296000Y-14464804D01*
X10296000Y-13896525D01*
X10317140Y-13896525D01*
X10317140Y-13933474D01*
X10328547Y-13990823D01*
X10361033Y-14039441D01*
X10409651Y-14071927D01*
X10467000Y-14083334D01*
X10524349Y-14071927D01*
X10572967Y-14039441D01*
X10593646Y-14008493D01*
X10630796Y-14050073D01*
X10683521Y-14075471D01*
X10685097Y-14075736D01*
X10708300Y-14063622D01*
X10708300Y-13927700D01*
X10706300Y-13927700D01*
X10706300Y-13902300D01*
X10708300Y-13902300D01*
X10708300Y-13766378D01*
X10733700Y-13766378D01*
X10733700Y-13902300D01*
X10735700Y-13902300D01*
X10735700Y-13927700D01*
X10733700Y-13927700D01*
X10733700Y-14063622D01*
X10756903Y-14075736D01*
X10758479Y-14075471D01*
X10811204Y-14050073D01*
X10826891Y-14032515D01*
X10828324Y-14040132D01*
X10842231Y-14061744D01*
X10863451Y-14076243D01*
X10888640Y-14081344D01*
X11061360Y-14081344D01*
X11084892Y-14076916D01*
X11106504Y-14063009D01*
X11121003Y-14041789D01*
X11126104Y-14016600D01*
X11126104Y-13813400D01*
X11121676Y-13789868D01*
X11107769Y-13768256D01*
X11086549Y-13753757D01*
X11061360Y-13748656D01*
X10888640Y-13748656D01*
X10865108Y-13753084D01*
X10843496Y-13766991D01*
X10828997Y-13788211D01*
X10827077Y-13797693D01*
X10811204Y-13779927D01*
X10758479Y-13754529D01*
X10756903Y-13754264D01*
X10733700Y-13766378D01*
X10708300Y-13766378D01*
X10685097Y-13754264D01*
X10683521Y-13754529D01*
X10630796Y-13779927D01*
X10593646Y-13821507D01*
X10572967Y-13790558D01*
X10524349Y-13758073D01*
X10467000Y-13746665D01*
X10409651Y-13758073D01*
X10361033Y-13790558D01*
X10328547Y-13839177D01*
X10317140Y-13896525D01*
X10296000Y-13896525D01*
X10296000Y-13721993D01*
X10298753Y-13708152D01*
X10403396Y-13571661D01*
X10456993Y-13561000D01*
X12365549Y-13561000D01*
X12356457Y-13606706D01*
G36*
X12893898Y-14410780D02*
X12953904Y-14470891D01*
X13032346Y-14503463D01*
X13117281Y-14503537D01*
X13171500Y-14481134D01*
X13171500Y-14533987D01*
X13176572Y-14559484D01*
X12933756Y-14802300D01*
X12922625Y-14802300D01*
X12938500Y-14786425D01*
X12938500Y-14642369D01*
X12928833Y-14619030D01*
X12910970Y-14601167D01*
X12887631Y-14591500D01*
X12703575Y-14591500D01*
X12687700Y-14607375D01*
X12687700Y-14802300D01*
X12689700Y-14802300D01*
X12689700Y-14827700D01*
X12687700Y-14827700D01*
X12687700Y-14829700D01*
X12664787Y-14829700D01*
X12664787Y-14779902D01*
X12662300Y-14766685D01*
X12662300Y-14607375D01*
X12646425Y-14591500D01*
X12462369Y-14591500D01*
X12439030Y-14601167D01*
X12421167Y-14619030D01*
X12411500Y-14642369D01*
X12411500Y-14716749D01*
X12396425Y-14719586D01*
X12374813Y-14733493D01*
X12360314Y-14754713D01*
X12355213Y-14779902D01*
X12355213Y-14969266D01*
X10958337Y-14969266D01*
X10954952Y-14965881D01*
X10979841Y-14965903D01*
X11035361Y-14942963D01*
X11077875Y-14900522D01*
X11100913Y-14845042D01*
X11100965Y-14784969D01*
X11078025Y-14729449D01*
X11038519Y-14689874D01*
X11077875Y-14650586D01*
X11100913Y-14595106D01*
X11100965Y-14535033D01*
X11083804Y-14493500D01*
X11914997Y-14493500D01*
X11914856Y-14493591D01*
X11900357Y-14514811D01*
X11895256Y-14540000D01*
X11895256Y-14890000D01*
X11899684Y-14913532D01*
X11913591Y-14935144D01*
X11934811Y-14949643D01*
X11960000Y-14954744D01*
X12210000Y-14954744D01*
X12233532Y-14950316D01*
X12255144Y-14936409D01*
X12269643Y-14915189D01*
X12274744Y-14890000D01*
X12274744Y-14540000D01*
X12270316Y-14516468D01*
X12256409Y-14494856D01*
X12254425Y-14493500D01*
X12732868Y-14493500D01*
X12760995Y-14487905D01*
X12784840Y-14471972D01*
X12879903Y-14376910D01*
X12893898Y-14410780D01*
X12893898Y-14410780D01*
G37*
X12893898Y-14410780D02*
X12953904Y-14470891D01*
X13032346Y-14503463D01*
X13117281Y-14503537D01*
X13171500Y-14481134D01*
X13171500Y-14533987D01*
X13176572Y-14559484D01*
X12933756Y-14802300D01*
X12922625Y-14802300D01*
X12938500Y-14786425D01*
X12938500Y-14642369D01*
X12928833Y-14619030D01*
X12910970Y-14601167D01*
X12887631Y-14591500D01*
X12703575Y-14591500D01*
X12687700Y-14607375D01*
X12687700Y-14802300D01*
X12689700Y-14802300D01*
X12689700Y-14827700D01*
X12687700Y-14827700D01*
X12687700Y-14829700D01*
X12664787Y-14829700D01*
X12664787Y-14779902D01*
X12662300Y-14766685D01*
X12662300Y-14607375D01*
X12646425Y-14591500D01*
X12462369Y-14591500D01*
X12439030Y-14601167D01*
X12421167Y-14619030D01*
X12411500Y-14642369D01*
X12411500Y-14716749D01*
X12396425Y-14719586D01*
X12374813Y-14733493D01*
X12360314Y-14754713D01*
X12355213Y-14779902D01*
X12355213Y-14969266D01*
X10958337Y-14969266D01*
X10954952Y-14965881D01*
X10979841Y-14965903D01*
X11035361Y-14942963D01*
X11077875Y-14900522D01*
X11100913Y-14845042D01*
X11100965Y-14784969D01*
X11078025Y-14729449D01*
X11038519Y-14689874D01*
X11077875Y-14650586D01*
X11100913Y-14595106D01*
X11100965Y-14535033D01*
X11083804Y-14493500D01*
X11914997Y-14493500D01*
X11914856Y-14493591D01*
X11900357Y-14514811D01*
X11895256Y-14540000D01*
X11895256Y-14890000D01*
X11899684Y-14913532D01*
X11913591Y-14935144D01*
X11934811Y-14949643D01*
X11960000Y-14954744D01*
X12210000Y-14954744D01*
X12233532Y-14950316D01*
X12255144Y-14936409D01*
X12269643Y-14915189D01*
X12274744Y-14890000D01*
X12274744Y-14540000D01*
X12270316Y-14516468D01*
X12256409Y-14494856D01*
X12254425Y-14493500D01*
X12732868Y-14493500D01*
X12760995Y-14487905D01*
X12784840Y-14471972D01*
X12879903Y-14376910D01*
X12893898Y-14410780D01*
M02*
