G04 #@! TF.FileFunction,Soldermask,Top*
%FSLAX45Y45*%
G04 Gerber Fmt 4.5, Leading zero omitted, Abs format (unit mm)*
G04 Created by KiCad (PCBNEW 4.0.6+dfsg1-1) date Thu Nov  2 20:52:10 2017*
%MOMM*%
%LPD*%
G01*
G04 APERTURE LIST*
%ADD10C,0.150000*%
%ADD11R,1.800860X2.199640*%
%ADD12O,1.800860X2.199640*%
%ADD13R,1.727200X2.032000*%
%ADD14O,1.727200X2.032000*%
%ADD15C,1.750060*%
%ADD16R,1.750060X1.750060*%
%ADD17R,4.000000X3.200000*%
%ADD18C,3.000000*%
%ADD19O,1.500000X2.800000*%
%ADD20O,1.500000X2.900000*%
%ADD21C,1.700000*%
G04 APERTURE END LIST*
D10*
X19975000Y-15340000D02*
X15225000Y-15340000D01*
X15450000Y-13515000D02*
G75*
G03X15225000Y-13740000I0J-225000D01*
G01*
X19975000Y-13715000D02*
G75*
G03X19825000Y-13515000I-175000J25000D01*
G01*
X15225000Y-15340000D02*
X15225000Y-13740000D01*
X15450000Y-13515000D02*
X19825000Y-13515000D01*
X19975000Y-15340000D02*
X19975000Y-13715000D01*
X14975000Y-15315000D02*
X14975000Y-13690000D01*
X10450000Y-13490000D02*
X14825000Y-13490000D01*
X10225000Y-15315000D02*
X10225000Y-13715000D01*
X14975000Y-13690000D02*
G75*
G03X14825000Y-13490000I-175000J25000D01*
G01*
X10450000Y-13490000D02*
G75*
G03X10225000Y-13715000I0J-225000D01*
G01*
X14975000Y-15315000D02*
X10225000Y-15315000D01*
D11*
X17510000Y-14919884D03*
D12*
X17510000Y-14289964D03*
X17510000Y-13660044D03*
D11*
X19210000Y-14919884D03*
D12*
X19210000Y-14289964D03*
X19210000Y-13660044D03*
D13*
X15975000Y-13940000D03*
D14*
X15721000Y-13940000D03*
X15467000Y-13940000D03*
D15*
X15949936Y-14589938D03*
D16*
X15450064Y-14589938D03*
D15*
X15700000Y-14589938D03*
X15700000Y-14839874D03*
D16*
X15450064Y-14839874D03*
D15*
X15949936Y-14839874D03*
D13*
X18625000Y-13740000D03*
D14*
X18371000Y-13740000D03*
X18117000Y-13740000D03*
D17*
X19075000Y-14840000D03*
X17675000Y-14840000D03*
D18*
X19475000Y-14315000D03*
X18075000Y-14315000D03*
D19*
X18892500Y-15160000D03*
X18312500Y-15160000D03*
X18312500Y-14840000D03*
X18312500Y-14490000D03*
D20*
X18902500Y-14490000D03*
D21*
X18602500Y-15090000D03*
X18602500Y-14490000D03*
D13*
X10975000Y-13915000D03*
D14*
X10721000Y-13915000D03*
X10467000Y-13915000D03*
D15*
X10949936Y-14564938D03*
D16*
X10450064Y-14564938D03*
D15*
X10700000Y-14564938D03*
X10700000Y-14814874D03*
D16*
X10450064Y-14814874D03*
D15*
X10949936Y-14814874D03*
D13*
X13625000Y-13715000D03*
D14*
X13371000Y-13715000D03*
X13125000Y-13715000D03*
D17*
X14075000Y-14815000D03*
X12675000Y-14815000D03*
D18*
X14475000Y-14290000D03*
X13075000Y-14290000D03*
D19*
X13890000Y-15135000D03*
X13310000Y-15135000D03*
X13310000Y-14815000D03*
X13310000Y-14465000D03*
D20*
X13900000Y-14465000D03*
D21*
X13600000Y-15065000D03*
X13600000Y-14465000D03*
D11*
X12510000Y-14889884D03*
D12*
X12510000Y-14259964D03*
X12510000Y-13630044D03*
D11*
X14210000Y-14889884D03*
D12*
X14210000Y-14259964D03*
X14210000Y-13630044D03*
M02*
