M48
;DRILL file {KiCad 4.0.6+dfsg1-1} date Thu Nov  2 20:52:12 2017
;FORMAT={-:-/ absolute / metric / decimal}
FMAT,2
METRIC,TZ
T1C0.635
T2C0.800
T3C0.900
T4C1.001
T5C1.016
T6C1.600
T7C1.700
%
G90
G05
M71
T1
X106.15Y-151.55
X113.15Y-148.95
X113.4Y-141.4
X113.5Y-136.65
X117.85Y-145.75
X118.3Y-140.95
X119.7Y-136.25
X128.25Y-137.7
X133.8Y-140.1
X134.55Y-142.7
X137.55Y-142.7
X140.2Y-140.5
X140.35Y-135.85
X140.6Y-138.6
X143.3Y-139.
X145.1Y-151.3
X145.3Y-135.85
X147.9Y-143.4
X162.65Y-137.4
X162.95Y-146.7
X168.35Y-140.9
X168.4Y-149.15
X172.Y-143.05
X178.15Y-139.25
X183.2Y-140.45
X185.75Y-140.45
X189.4Y-141.5
X189.6Y-136.25
X193.3Y-139.85
X195.3Y-136.5
X196.8Y-151.4
X197.8Y-143.6
T4
X104.501Y-145.649
X104.501Y-148.149
X107.Y-145.649
X107.Y-148.149
X109.499Y-145.649
X109.499Y-148.149
X154.501Y-145.899
X154.501Y-148.399
X157.Y-145.899
X157.Y-148.399
X159.499Y-145.899
X159.499Y-148.399
T5
X104.67Y-139.15
X107.21Y-139.15
X109.75Y-139.15
X131.25Y-137.15
X133.71Y-137.15
X136.25Y-137.15
X154.67Y-139.4
X157.21Y-139.4
X159.75Y-139.4
X181.17Y-137.4
X183.71Y-137.4
X186.25Y-137.4
T6
X130.75Y-142.9
X144.75Y-142.9
X180.75Y-143.15
X194.75Y-143.15
T7
X136.Y-144.65
X136.Y-150.65
X186.025Y-144.9
X186.025Y-150.9
T2
X125.1Y-136.75G85X125.1Y-135.851
G05
X125.1Y-143.049G85X125.1Y-142.15
G05
X125.1Y-149.348G85X125.1Y-148.449
G05
X142.1Y-136.75G85X142.1Y-135.851
G05
X142.1Y-143.049G85X142.1Y-142.15
G05
X142.1Y-149.348G85X142.1Y-148.449
G05
X175.1Y-137.05G85X175.1Y-136.151
G05
X175.1Y-143.349G85X175.1Y-142.45
G05
X175.1Y-149.648G85X175.1Y-148.749
G05
X192.1Y-137.05G85X192.1Y-136.151
G05
X192.1Y-143.349G85X192.1Y-142.45
G05
X192.1Y-149.648G85X192.1Y-148.749
G05
T3
X133.1Y-144.925G85X133.1Y-144.375
G05
X133.1Y-148.425G85X133.1Y-147.875
G05
X133.1Y-151.625G85X133.1Y-151.075
G05
X138.9Y-151.625G85X138.9Y-151.075
G05
X139.Y-144.925G85X139.Y-144.375
G05
X183.125Y-145.175G85X183.125Y-144.625
G05
X183.125Y-148.675G85X183.125Y-148.125
G05
X183.125Y-151.875G85X183.125Y-151.325
G05
X188.925Y-151.875G85X188.925Y-151.325
G05
X189.025Y-145.175G85X189.025Y-144.625
G05
T7
X126.35Y-148.15G85X127.15Y-148.15
G05
X140.35Y-148.15G85X141.15Y-148.15
G05
X176.35Y-148.4G85X177.15Y-148.4
G05
X190.35Y-148.4G85X191.15Y-148.4
G05
T0
M30
