G04 #@! TF.FileFunction,Legend,Top*
%FSLAX45Y45*%
G04 Gerber Fmt 4.5, Leading zero omitted, Abs format (unit mm)*
G04 Created by KiCad (PCBNEW 4.0.6+dfsg1-1) date Sat Nov  4 13:52:50 2017*
%MOMM*%
%LPD*%
G01*
G04 APERTURE LIST*
%ADD10C,0.150000*%
%ADD11C,0.250000*%
%ADD12C,0.381000*%
G04 APERTURE END LIST*
D10*
D11*
X12910952Y-13690238D02*
X12877619Y-13642619D01*
X12853809Y-13690238D02*
X12853809Y-13590238D01*
X12891905Y-13590238D01*
X12901429Y-13595000D01*
X12906190Y-13599762D01*
X12910952Y-13609286D01*
X12910952Y-13623571D01*
X12906190Y-13633095D01*
X12901429Y-13637857D01*
X12891905Y-13642619D01*
X12853809Y-13642619D01*
X10450952Y-14235238D02*
X10417619Y-14187619D01*
X10393810Y-14235238D02*
X10393810Y-14135238D01*
X10431905Y-14135238D01*
X10441429Y-14140000D01*
X10446191Y-14144762D01*
X10450952Y-14154286D01*
X10450952Y-14168571D01*
X10446191Y-14178095D01*
X10441429Y-14182857D01*
X10431905Y-14187619D01*
X10393810Y-14187619D01*
X10454286Y-13525238D02*
X10511429Y-13525238D01*
X10482857Y-13625238D02*
X10482857Y-13525238D01*
X10544762Y-13625238D02*
X10544762Y-13525238D01*
X10587619Y-13625238D02*
X10587619Y-13572857D01*
X10582857Y-13563333D01*
X10573333Y-13558571D01*
X10559048Y-13558571D01*
X10549524Y-13563333D01*
X10544762Y-13568095D01*
X10635238Y-13625238D02*
X10635238Y-13558571D01*
X10635238Y-13577619D02*
X10640000Y-13568095D01*
X10644762Y-13563333D01*
X10654286Y-13558571D01*
X10663810Y-13558571D01*
X10740000Y-13558571D02*
X10740000Y-13625238D01*
X10697143Y-13558571D02*
X10697143Y-13610952D01*
X10701905Y-13620476D01*
X10711429Y-13625238D01*
X10725714Y-13625238D01*
X10735238Y-13620476D01*
X10740000Y-13615714D01*
X10863810Y-13625238D02*
X10863810Y-13525238D01*
X10901905Y-13525238D01*
X10911429Y-13530000D01*
X10916191Y-13534762D01*
X10920953Y-13544286D01*
X10920953Y-13558571D01*
X10916191Y-13568095D01*
X10911429Y-13572857D01*
X10901905Y-13577619D01*
X10863810Y-13577619D01*
X10978095Y-13625238D02*
X10968572Y-13620476D01*
X10963810Y-13615714D01*
X10959048Y-13606190D01*
X10959048Y-13577619D01*
X10963810Y-13568095D01*
X10968572Y-13563333D01*
X10978095Y-13558571D01*
X10992381Y-13558571D01*
X11001905Y-13563333D01*
X11006667Y-13568095D01*
X11011429Y-13577619D01*
X11011429Y-13606190D01*
X11006667Y-13615714D01*
X11001905Y-13620476D01*
X10992381Y-13625238D01*
X10978095Y-13625238D01*
X11040000Y-13558571D02*
X11078095Y-13558571D01*
X11054286Y-13525238D02*
X11054286Y-13610952D01*
X11059048Y-13620476D01*
X11068572Y-13625238D01*
X11078095Y-13625238D01*
X11111429Y-13615714D02*
X11116191Y-13620476D01*
X11111429Y-13625238D01*
X11106667Y-13620476D01*
X11111429Y-13615714D01*
X11111429Y-13625238D01*
X11407619Y-14705238D02*
X11440952Y-14805238D01*
X11474286Y-14705238D01*
X11560000Y-14805238D02*
X11502857Y-14805238D01*
X11531429Y-14805238D02*
X11531429Y-14705238D01*
X11521905Y-14719524D01*
X11512381Y-14729048D01*
X11502857Y-14733809D01*
X11602857Y-14795714D02*
X11607619Y-14800476D01*
X11602857Y-14805238D01*
X11598095Y-14800476D01*
X11602857Y-14795714D01*
X11602857Y-14805238D01*
X11664762Y-14748095D02*
X11655238Y-14743333D01*
X11650476Y-14738571D01*
X11645714Y-14729048D01*
X11645714Y-14724286D01*
X11650476Y-14714762D01*
X11655238Y-14710000D01*
X11664762Y-14705238D01*
X11683810Y-14705238D01*
X11693333Y-14710000D01*
X11698095Y-14714762D01*
X11702857Y-14724286D01*
X11702857Y-14729048D01*
X11698095Y-14738571D01*
X11693333Y-14743333D01*
X11683810Y-14748095D01*
X11664762Y-14748095D01*
X11655238Y-14752857D01*
X11650476Y-14757619D01*
X11645714Y-14767143D01*
X11645714Y-14786190D01*
X11650476Y-14795714D01*
X11655238Y-14800476D01*
X11664762Y-14805238D01*
X11683810Y-14805238D01*
X11693333Y-14800476D01*
X11698095Y-14795714D01*
X11702857Y-14786190D01*
X11702857Y-14767143D01*
X11698095Y-14757619D01*
X11693333Y-14752857D01*
X11683810Y-14748095D01*
X10586667Y-14286667D02*
X10634286Y-14286667D01*
X10577143Y-14315238D02*
X10610476Y-14215238D01*
X10643810Y-14315238D01*
X10720000Y-14248571D02*
X10720000Y-14315238D01*
X10677143Y-14248571D02*
X10677143Y-14300952D01*
X10681905Y-14310476D01*
X10691429Y-14315238D01*
X10705714Y-14315238D01*
X10715238Y-14310476D01*
X10720000Y-14305714D01*
X10810476Y-14315238D02*
X10810476Y-14215238D01*
X10810476Y-14310476D02*
X10800952Y-14315238D01*
X10781905Y-14315238D01*
X10772381Y-14310476D01*
X10767619Y-14305714D01*
X10762857Y-14296190D01*
X10762857Y-14267619D01*
X10767619Y-14258095D01*
X10772381Y-14253333D01*
X10781905Y-14248571D01*
X10800952Y-14248571D01*
X10810476Y-14253333D01*
X10858095Y-14315238D02*
X10858095Y-14248571D01*
X10858095Y-14215238D02*
X10853333Y-14220000D01*
X10858095Y-14224762D01*
X10862857Y-14220000D01*
X10858095Y-14215238D01*
X10858095Y-14224762D01*
X10920000Y-14315238D02*
X10910476Y-14310476D01*
X10905714Y-14305714D01*
X10900952Y-14296190D01*
X10900952Y-14267619D01*
X10905714Y-14258095D01*
X10910476Y-14253333D01*
X10920000Y-14248571D01*
X10934286Y-14248571D01*
X10943810Y-14253333D01*
X10948571Y-14258095D01*
X10953333Y-14267619D01*
X10953333Y-14296190D01*
X10948571Y-14305714D01*
X10943810Y-14310476D01*
X10934286Y-14315238D01*
X10920000Y-14315238D01*
X11072381Y-14315238D02*
X11072381Y-14215238D01*
X11120000Y-14248571D02*
X11120000Y-14315238D01*
X11120000Y-14258095D02*
X11124762Y-14253333D01*
X11134286Y-14248571D01*
X11148571Y-14248571D01*
X11158095Y-14253333D01*
X11162857Y-14262857D01*
X11162857Y-14315238D01*
X11210476Y-14248571D02*
X11210476Y-14334286D01*
X11205714Y-14343809D01*
X11196190Y-14348571D01*
X11191428Y-14348571D01*
X11210476Y-14215238D02*
X11205714Y-14220000D01*
X11210476Y-14224762D01*
X11215238Y-14220000D01*
X11210476Y-14215238D01*
X11210476Y-14224762D01*
X11296190Y-14310476D02*
X11286667Y-14315238D01*
X11267619Y-14315238D01*
X11258095Y-14310476D01*
X11253333Y-14300952D01*
X11253333Y-14262857D01*
X11258095Y-14253333D01*
X11267619Y-14248571D01*
X11286667Y-14248571D01*
X11296190Y-14253333D01*
X11300952Y-14262857D01*
X11300952Y-14272381D01*
X11253333Y-14281905D01*
X11386667Y-14310476D02*
X11377143Y-14315238D01*
X11358095Y-14315238D01*
X11348571Y-14310476D01*
X11343809Y-14305714D01*
X11339047Y-14296190D01*
X11339047Y-14267619D01*
X11343809Y-14258095D01*
X11348571Y-14253333D01*
X11358095Y-14248571D01*
X11377143Y-14248571D01*
X11386667Y-14253333D01*
X11415238Y-14248571D02*
X11453333Y-14248571D01*
X11429524Y-14215238D02*
X11429524Y-14300952D01*
X11434286Y-14310476D01*
X11443809Y-14315238D01*
X11453333Y-14315238D01*
X11500952Y-14315238D02*
X11491428Y-14310476D01*
X11486667Y-14305714D01*
X11481905Y-14296190D01*
X11481905Y-14267619D01*
X11486667Y-14258095D01*
X11491428Y-14253333D01*
X11500952Y-14248571D01*
X11515238Y-14248571D01*
X11524762Y-14253333D01*
X11529524Y-14258095D01*
X11534286Y-14267619D01*
X11534286Y-14296190D01*
X11529524Y-14305714D01*
X11524762Y-14310476D01*
X11515238Y-14315238D01*
X11500952Y-14315238D01*
X11577143Y-14315238D02*
X11577143Y-14248571D01*
X11577143Y-14267619D02*
X11581905Y-14258095D01*
X11586667Y-14253333D01*
X11596190Y-14248571D01*
X11605714Y-14248571D01*
X11715238Y-14305714D02*
X11720000Y-14310476D01*
X11715238Y-14315238D01*
X11710476Y-14310476D01*
X11715238Y-14305714D01*
X11715238Y-14315238D01*
X11762857Y-14248571D02*
X11762857Y-14315238D01*
X11762857Y-14258095D02*
X11767619Y-14253333D01*
X11777143Y-14248571D01*
X11791429Y-14248571D01*
X11800952Y-14253333D01*
X11805714Y-14262857D01*
X11805714Y-14315238D01*
X11891429Y-14310476D02*
X11881905Y-14315238D01*
X11862857Y-14315238D01*
X11853333Y-14310476D01*
X11848571Y-14300952D01*
X11848571Y-14262857D01*
X11853333Y-14253333D01*
X11862857Y-14248571D01*
X11881905Y-14248571D01*
X11891429Y-14253333D01*
X11896190Y-14262857D01*
X11896190Y-14272381D01*
X11848571Y-14281905D01*
X11924762Y-14248571D02*
X11962857Y-14248571D01*
X11939048Y-14215238D02*
X11939048Y-14300952D01*
X11943809Y-14310476D01*
X11953333Y-14315238D01*
X11962857Y-14315238D01*
X13489762Y-14015238D02*
X13489762Y-13915238D01*
X13513571Y-13915238D01*
X13527857Y-13920000D01*
X13537381Y-13929524D01*
X13542143Y-13939048D01*
X13546905Y-13958095D01*
X13546905Y-13972381D01*
X13542143Y-13991429D01*
X13537381Y-14000952D01*
X13527857Y-14010476D01*
X13513571Y-14015238D01*
X13489762Y-14015238D01*
X13589762Y-14015238D02*
X13589762Y-13948571D01*
X13589762Y-13915238D02*
X13585000Y-13920000D01*
X13589762Y-13924762D01*
X13594524Y-13920000D01*
X13589762Y-13915238D01*
X13589762Y-13924762D01*
X13637381Y-14015238D02*
X13637381Y-13948571D01*
X13637381Y-13967619D02*
X13642143Y-13958095D01*
X13646905Y-13953333D01*
X13656428Y-13948571D01*
X13665952Y-13948571D01*
X13737381Y-14010476D02*
X13727857Y-14015238D01*
X13708809Y-14015238D01*
X13699286Y-14010476D01*
X13694524Y-14000952D01*
X13694524Y-13962857D01*
X13699286Y-13953333D01*
X13708809Y-13948571D01*
X13727857Y-13948571D01*
X13737381Y-13953333D01*
X13742143Y-13962857D01*
X13742143Y-13972381D01*
X13694524Y-13981905D01*
X13827857Y-14010476D02*
X13818333Y-14015238D01*
X13799286Y-14015238D01*
X13789762Y-14010476D01*
X13785000Y-14005714D01*
X13780238Y-13996190D01*
X13780238Y-13967619D01*
X13785000Y-13958095D01*
X13789762Y-13953333D01*
X13799286Y-13948571D01*
X13818333Y-13948571D01*
X13827857Y-13953333D01*
X13856429Y-13948571D02*
X13894524Y-13948571D01*
X13870714Y-13915238D02*
X13870714Y-14000952D01*
X13875476Y-14010476D01*
X13885000Y-14015238D01*
X13894524Y-14015238D01*
X11487619Y-13677738D02*
X11554286Y-13677738D01*
X11487619Y-13777738D01*
X11554286Y-13777738D01*
X11630476Y-13772976D02*
X11620952Y-13777738D01*
X11601905Y-13777738D01*
X11592381Y-13772976D01*
X11587619Y-13763452D01*
X11587619Y-13725357D01*
X11592381Y-13715833D01*
X11601905Y-13711071D01*
X11620952Y-13711071D01*
X11630476Y-13715833D01*
X11635238Y-13725357D01*
X11635238Y-13734881D01*
X11587619Y-13744405D01*
X11678095Y-13777738D02*
X11678095Y-13711071D01*
X11678095Y-13730119D02*
X11682857Y-13720595D01*
X11687619Y-13715833D01*
X11697143Y-13711071D01*
X11706667Y-13711071D01*
X11754286Y-13777738D02*
X11744762Y-13772976D01*
X11740000Y-13768214D01*
X11735238Y-13758690D01*
X11735238Y-13730119D01*
X11740000Y-13720595D01*
X11744762Y-13715833D01*
X11754286Y-13711071D01*
X11768571Y-13711071D01*
X11778095Y-13715833D01*
X11782857Y-13720595D01*
X11787619Y-13730119D01*
X11787619Y-13758690D01*
X11782857Y-13768214D01*
X11778095Y-13772976D01*
X11768571Y-13777738D01*
X11754286Y-13777738D01*
X11587619Y-13952738D02*
X11587619Y-13852738D01*
X11654286Y-13852738D02*
X11673333Y-13852738D01*
X11682857Y-13857500D01*
X11692381Y-13867024D01*
X11697143Y-13886071D01*
X11697143Y-13919405D01*
X11692381Y-13938452D01*
X11682857Y-13947976D01*
X11673333Y-13952738D01*
X11654286Y-13952738D01*
X11644762Y-13947976D01*
X11635238Y-13938452D01*
X11630476Y-13919405D01*
X11630476Y-13886071D01*
X11635238Y-13867024D01*
X11644762Y-13857500D01*
X11654286Y-13852738D01*
D10*
X14975000Y-15315000D02*
X14975000Y-13690000D01*
X10450000Y-13490000D02*
X14825000Y-13490000D01*
X10225000Y-15315000D02*
X10225000Y-13715000D01*
X14975000Y-13690000D02*
G75*
G03X14825000Y-13490000I-175000J25000D01*
G01*
X10450000Y-13490000D02*
G75*
G03X10225000Y-13715000I0J-225000D01*
G01*
X14975000Y-15315000D02*
X10225000Y-15315000D01*
X10848000Y-13788000D02*
X10340000Y-13788000D01*
X10340000Y-13788000D02*
X10340000Y-14042000D01*
X10340000Y-14042000D02*
X10848000Y-14042000D01*
X11130000Y-14070000D02*
X10975000Y-14070000D01*
X10848000Y-14042000D02*
X10848000Y-13788000D01*
X10975000Y-13760000D02*
X11130000Y-13760000D01*
X11130000Y-13760000D02*
X11130000Y-14070000D01*
D12*
X10225020Y-14415078D02*
X11174980Y-14415078D01*
X11174980Y-14665014D02*
X11174980Y-14415078D01*
X10225020Y-14665014D02*
X10225020Y-14415078D01*
X10400026Y-15815126D02*
X10400026Y-16314998D01*
X10400026Y-16314998D02*
X10999974Y-16314998D01*
X10999974Y-16314998D02*
X10999974Y-15815126D01*
X10400026Y-15315000D02*
X10400026Y-15815126D01*
X10400026Y-15815126D02*
X10999974Y-15815126D01*
X10999974Y-15815126D02*
X10999974Y-15315000D01*
X11150088Y-15315000D02*
X10249912Y-15315000D01*
X10225020Y-14614976D02*
X10225020Y-15315000D01*
X11174980Y-14614976D02*
X11174980Y-15315000D01*
X10249912Y-14689906D02*
X11150088Y-14689906D01*
D10*
X13498000Y-13588000D02*
X12990000Y-13588000D01*
X12990000Y-13588000D02*
X12990000Y-13842000D01*
X12990000Y-13842000D02*
X13498000Y-13842000D01*
X13780000Y-13870000D02*
X13625000Y-13870000D01*
X13498000Y-13842000D02*
X13498000Y-13588000D01*
X13625000Y-13560000D02*
X13780000Y-13560000D01*
X13780000Y-13560000D02*
X13780000Y-13870000D01*
X13375000Y-15315000D02*
X14735000Y-15315000D01*
X14735000Y-15315000D02*
X14735000Y-14285000D01*
X14735000Y-14285000D02*
X12015000Y-14285000D01*
X12015000Y-14285000D02*
X12015000Y-15315000D01*
X12015000Y-15315000D02*
X13375000Y-15315000D01*
X13300000Y-15315000D02*
X13300000Y-15565000D01*
X13300000Y-15565000D02*
X13900000Y-15565000D01*
X13900000Y-15565000D02*
X13900000Y-15315000D01*
X13300000Y-15315000D02*
X13300000Y-14165000D01*
X13300000Y-14165000D02*
X13900000Y-14165000D01*
X13900000Y-14165000D02*
X13900000Y-15315000D01*
X13900000Y-15315000D02*
X13300000Y-15315000D01*
X12885000Y-13260000D02*
X12885000Y-12910000D01*
X12885000Y-12910000D02*
X13835000Y-12910000D01*
X13835000Y-12910000D02*
X13835000Y-13260000D01*
X13860000Y-16160000D02*
X12860000Y-16160000D01*
X14135000Y-15710000D02*
X13860000Y-16160000D01*
X12810000Y-15710000D02*
X12585000Y-15710000D01*
X14135000Y-15710000D02*
X13910000Y-15710000D01*
X12810000Y-15710000D02*
X12585000Y-15710000D01*
X12585000Y-15710000D02*
X12860000Y-16160000D01*
X12810000Y-15310000D02*
X12810000Y-15710000D01*
X12810000Y-15710000D02*
X13910000Y-15710000D01*
X13910000Y-15710000D02*
X13910000Y-15310000D01*
X14360000Y-15310000D02*
X12360000Y-15310000D01*
X14360000Y-15210000D02*
X12360000Y-15210000D01*
X12360000Y-13260000D02*
X14360000Y-13260000D01*
X14360000Y-15210000D02*
X14360000Y-13260000D01*
X12360000Y-15210000D02*
X12360000Y-13260000D01*
X12428600Y-13920000D02*
G75*
G03X12428600Y-13920000I-228600J0D01*
G01*
X14928600Y-13910000D02*
G75*
G03X14928600Y-13910000I-228600J0D01*
G01*
M02*
