M48
;DRILL file {KiCad 4.0.6+dfsg1-1} date Sat Nov  4 13:52:53 2017
;FORMAT={-:-/ absolute / metric / decimal}
FMAT,2
METRIC,TZ
T1C0.635
T2C0.800
T3C0.900
T4C1.001
T5C1.016
T6C1.600
T7C1.700
T8C3.048
%
G90
G05
M71
T1
X106.15Y-151.55
X113.15Y-148.95
X113.4Y-141.4
X113.5Y-136.65
X117.85Y-145.75
X118.3Y-140.95
X119.7Y-136.25
X128.25Y-137.7
X133.8Y-140.1
X134.55Y-142.7
X137.55Y-142.7
X140.2Y-140.5
X140.35Y-135.85
X140.6Y-138.6
X143.3Y-139.
X145.1Y-151.3
X145.3Y-135.85
X147.9Y-143.4
T4
X104.501Y-145.649
X104.501Y-148.149
X107.Y-145.649
X107.Y-148.149
X109.499Y-145.649
X109.499Y-148.149
T5
X104.67Y-139.15
X107.21Y-139.15
X109.75Y-139.15
X131.25Y-137.15
X133.71Y-137.15
X136.25Y-137.15
T6
X130.75Y-142.9
X144.75Y-142.9
T7
X136.Y-144.65
X136.Y-150.65
T8
X122.Y-139.2
X147.Y-139.1
T2
X125.1Y-136.75G85X125.1Y-135.851
G05
X125.1Y-143.049G85X125.1Y-142.15
G05
X125.1Y-149.348G85X125.1Y-148.449
G05
X142.1Y-136.75G85X142.1Y-135.851
G05
X142.1Y-143.049G85X142.1Y-142.15
G05
X142.1Y-149.348G85X142.1Y-148.449
G05
T3
X133.1Y-144.925G85X133.1Y-144.375
G05
X133.1Y-148.425G85X133.1Y-147.875
G05
X133.1Y-151.625G85X133.1Y-151.075
G05
X138.9Y-151.625G85X138.9Y-151.075
G05
X139.Y-144.925G85X139.Y-144.375
G05
T7
X126.35Y-148.15G85X127.15Y-148.15
G05
X140.35Y-148.15G85X141.15Y-148.15
G05
T0
M30
