G04 #@! TF.FileFunction,Soldermask,Top*
%FSLAX45Y45*%
G04 Gerber Fmt 4.5, Leading zero omitted, Abs format (unit mm)*
G04 Created by KiCad (PCBNEW 4.0.6+dfsg1-1) date Sat Nov  4 13:52:50 2017*
%MOMM*%
%LPD*%
G01*
G04 APERTURE LIST*
%ADD10C,0.150000*%
%ADD11R,1.727200X2.032000*%
%ADD12O,1.727200X2.032000*%
%ADD13C,1.750060*%
%ADD14R,1.750060X1.750060*%
%ADD15R,4.000000X3.200000*%
%ADD16C,3.000000*%
%ADD17O,1.500000X2.800000*%
%ADD18O,1.500000X2.900000*%
%ADD19C,1.700000*%
%ADD20R,1.800860X2.199640*%
%ADD21O,1.800860X2.199640*%
%ADD22C,4.064000*%
G04 APERTURE END LIST*
D10*
X14975000Y-15315000D02*
X14975000Y-13690000D01*
X10450000Y-13490000D02*
X14825000Y-13490000D01*
X10225000Y-15315000D02*
X10225000Y-13715000D01*
X14975000Y-13690000D02*
G75*
G03X14825000Y-13490000I-175000J25000D01*
G01*
X10450000Y-13490000D02*
G75*
G03X10225000Y-13715000I0J-225000D01*
G01*
X14975000Y-15315000D02*
X10225000Y-15315000D01*
D11*
X10975000Y-13915000D03*
D12*
X10721000Y-13915000D03*
X10467000Y-13915000D03*
D13*
X10949936Y-14564938D03*
D14*
X10450064Y-14564938D03*
D13*
X10700000Y-14564938D03*
X10700000Y-14814874D03*
D14*
X10450064Y-14814874D03*
D13*
X10949936Y-14814874D03*
D11*
X13625000Y-13715000D03*
D12*
X13371000Y-13715000D03*
X13125000Y-13715000D03*
D15*
X14075000Y-14815000D03*
X12675000Y-14815000D03*
D16*
X14475000Y-14290000D03*
X13075000Y-14290000D03*
D17*
X13890000Y-15135000D03*
X13310000Y-15135000D03*
X13310000Y-14815000D03*
X13310000Y-14465000D03*
D18*
X13900000Y-14465000D03*
D19*
X13600000Y-15065000D03*
X13600000Y-14465000D03*
D20*
X12510000Y-14889884D03*
D21*
X12510000Y-14259964D03*
X12510000Y-13630044D03*
D20*
X14210000Y-14889884D03*
D21*
X14210000Y-14259964D03*
X14210000Y-13630044D03*
D22*
X12200000Y-13920000D03*
X14700000Y-13910000D03*
M02*
